<?xml version="1.0" encoding="UTF-8"?><svg id="a" xmlns="http://www.w3.org/2000/svg" viewBox="0 0 365.13 359.14"><defs><style>.b{fill:none;}.b,.c,.d,.e,.f,.g,.h,.i{stroke-width:0px;}.c,.d{fill-rule:evenodd;}.c,.h{fill:#00477f;}.d,.e{fill:#fff;}.f{fill:#fedd10;}.g{fill:#ffd520;}.i{fill:#004880;}</style></defs><path class="e" d="m352,212l-31.23-17.34c.3-3.68.45-7.39.45-11.07v-8.18c0-3.67-.15-7.38-.45-11.07l31.24-17.34.34-.19,3.39-1.9-1-3.76-.1-.36-5.41-20.2-.1-.37-1.01-3.77-3.91.07h-.38s-35.68.61-35.68.61c-3.16-6.68-6.88-13.12-11.09-19.19l18.37-30.61.19-.32,2.01-3.35-2.76-2.76-.27-.27-14.78-14.79-.27-.27-2.76-2.75-3.34,2-.32.19-30.61,18.37c-6.08-4.21-12.51-7.93-19.19-11.09l.6-35.68v-.36s.09-3.91.09-3.91l-3.78-1.02-.36-.1-20.21-5.41-.37-.1-3.77-1-1.89,3.41-.18.33-17.01,30.65c-5.25-.59-10.55-.89-15.79-.89s-10.5.3-15.74.88l-17.01-30.65-.18-.33-1.89-3.41-3.77,1-.36.1-20.21,5.41-.37.1-3.77,1.02.07,3.9v.38s.61,35.68.61,35.68c-6.69,3.17-13.12,6.88-19.19,11.09l-30.61-18.37-.32-.19-3.35-2.01-2.76,2.76-.27.27-14.79,14.79-.27.28-2.74,2.76,2,3.34.19.32,18.37,30.62c-4.21,6.07-7.92,12.51-11.09,19.19l-35.68-.6h-.37s-3.9-.08-3.9-.08l-1.02,3.77-.1.36-5.42,20.21-.1.37-1,3.76,3.4,1.9.33.18,31.32,17.39c-.21,4.36-.24,10.27-.24,13.9v.17c0,3.58.14,7.2.41,10.77.08,1.85.18,3.67.32,5.44l-31.24,17.34-.32.18-3.42,1.88,1,3.77.1.37,5.42,20.22.1.37,1.02,3.78,3.91-.08h.38s35.66-.61,35.66-.61c3.17,6.69,6.89,13.12,11.09,19.19l-18.37,30.61-.2.33-2,3.34,2.75,2.76.27.27,14.79,14.79.27.27,2.76,2.76,3.34-2.01.32-.19,30.61-18.37c6.08,4.21,12.51,7.93,19.19,11.09l-.6,35.69v.36s-.08,3.89-.08,3.89l3.75,1.03.36.1,20.23,5.42.36.1,3.78,1.02,1.89-3.42.18-.33,17.34-31.23c3.68.3,7.39.45,11.07.45h8.18c3.67,0,7.38-.15,11.07-.45l17.34,31.24.18.32,1.89,3.42,3.78-1.01.36-.1,20.2-5.41.37-.1,3.78-1.02-.08-3.91v-.38s-.61-35.66-.61-35.66c6.69-3.17,13.12-6.88,19.19-11.09l30.61,18.37.32.19,3.34,2,2.76-2.75.27-.27,14.79-14.79.27-.27,2.76-2.76-2.01-3.35-.19-.32-18.36-30.61c4.21-6.08,7.93-12.51,11.09-19.19l35.68.6h.36s3.92.09,3.92.09l1.02-3.78.1-.36,5.41-20.2.1-.38,1-3.77-3.41-1.89-.33-.18Z"/><path class="h" d="m185.8,134.57l6.5-11.71.06-.11.12.03,6.94,1.86.12.03v.13s-.23,13.38-.23,13.38c2.91,1.29,5.68,2.89,8.25,4.77l11.48-6.89.11-.07.09.09,5.08,5.08.09.09-.07.11-6.89,11.48c1.87,2.57,3.48,5.34,4.77,8.25l13.38-.23h.13s.03.12.03.12l1.86,6.94.03.12-.11.06-11.71,6.5c.04.34.05.68.08,1.01l15.11-.02,75.17.11v-.32c0-4.6-.25-9.26-.73-13.85l34.09-18.93.33-.18-.1-.36-5.41-20.2-.1-.36h-.38s-38.95.66-38.95.66c-3.76-8.47-8.42-16.54-13.88-24.01l20.05-33.42.19-.32-.27-.27-14.78-14.79-.27-.27-.32.19-33.42,20.05c-7.47-5.45-15.55-10.12-24.02-13.88l.66-38.95v-.38s-.35-.1-.35-.1l-20.2-5.41-.36-.1-.18.33-18.92,34.09c-4.59-.48-9.25-.73-13.85-.73h-.16s-.16,0-.16,0v90.25c.36.03.72.05,1.07.08Z"/><path class="h" d="m45.86,161.56c-.48,4.59-.73,9.25-.73,13.85v.32h75.18l15.12-.18c.03-.3.04-.61.07-.91l-11.71-6.5-.11-.06.03-.12,1.86-6.94.03-.12h.13s13.38.23,13.38.23c1.29-2.91,2.89-5.69,4.77-8.25l-6.89-11.48-.07-.11.09-.09,5.08-5.08.09-.09.11.07,11.48,6.89c2.57-1.87,5.34-3.48,8.25-4.77l-.23-13.38v-.13s.12-.03.12-.03l6.94-1.86.12-.03.06.11,6.5,11.71c.36-.04.71-.06,1.07-.08V44.24h-.32c-4.61,0-9.27.25-13.85.73l-18.93-34.09-.18-.33-.36.1-20.2,5.41-.36.1v.38s.66,38.95.66,38.95c-8.47,3.76-16.55,8.42-24.02,13.88l-33.42-20.05-.32-.19-.27.27-14.79,14.79-.27.27.19.32,20.05,33.42c-5.45,7.47-10.12,15.54-13.88,24.01l-38.95-.66h-.38s-.1.36-.1.36l-5.41,20.2-.1.36.33.18,34.09,18.92Z"/><path class="h" d="m177.1,224.51c-.33-.03-.66-.04-.99-.08l-6.5,11.71-.06.11-.12-.03-6.94-1.86-.12-.03v-.13s.23-13.38.23-13.38c-2.91-1.29-5.68-2.89-8.25-4.77l-11.48,6.89-.11.07-.09-.09-5.08-5.08-.09-.09.07-.11,6.89-11.48c-1.87-2.56-3.48-5.34-4.77-8.25l-13.38.22h-.13s-.03-.12-.03-.12l-1.86-6.94-.03-.13.11-.06,11.71-6.5c-.04-.36-.06-.73-.09-1.1H45.69v.32c0,4.61.25,9.27.73,13.85l-34.09,18.93-.33.18.1.37,5.41,20.2.1.36h.38s38.95-.66,38.95-.66c3.76,8.47,8.43,16.55,13.88,24.01l-20.05,33.42-.19.32.27.27,14.79,14.79.27.27.32-.19,33.42-20.05c7.47,5.45,15.55,10.12,24.02,13.88l-.66,38.95v.38s.36.1.36.1l20.2,5.41.36.1.18-.33,18.93-34.09c4.58.48,9.24.73,13.85.73h.32v-75.18h-.11l.03-15.08Z"/><path class="h" d="m315.49,197.45c.48-4.59.73-9.25.73-13.85v-.32h-90.28c-.03.37-.05.74-.09,1.1l11.71,6.5.11.06-.03.13-1.86,6.94-.03.12h-.13s-13.38-.23-13.38-.23c-1.29,2.91-2.89,5.68-4.77,8.25l6.89,11.48.07.11-.09.09-5.08,5.08-.09.09-.11-.07-11.48-6.89c-2.57,1.87-5.34,3.48-8.25,4.77l.23,13.38v.13s-.12.03-.12.03l-6.94,1.86-.12.03-.06-.11-6.5-11.71c-.3.03-.6.05-.9.07l-.17,15.09v75.18h.32c4.61,0,9.27-.25,13.85-.73l18.92,34.09.18.33.36-.1,20.2-5.41.36-.1v-.38s-.66-38.95-.66-38.95c8.46-3.76,16.54-8.42,24.01-13.88l33.42,20.05.32.19.27-.27,14.79-14.79.27-.27-.19-.32-20.05-33.42c5.45-7.47,10.12-15.55,13.88-24.02l38.95.66h.38s.1-.36.1-.36l5.41-20.2.1-.37-.33-.18-34.09-18.92Z"/><path class="b" d="m102.11,213.79l-.17.02c-.1,8.31-.72,14.32-1.05,22.41.27.06.53.1.78.11h.15c1.24,0,2.08-.53,2.64-1.68.81-1.66,1.02-3.81,1.25-6.1.26-2.6.54-5.55,1.8-8.33.16-.35.34-.73.54-1.12l-5.59-2.38-.34-2.94Z"/><rect class="b" x="93.87" y="212.19" width="1.77" height="1.26"/><rect class="b" x="98.97" y="212.19" width="1.77" height="1.26"/><path class="b" d="m94.23,230.62l-.12,1.05c.15.15.31.29.46.44l.03-1.49h-.37Z"/><path class="b" d="m92.82,188.1c1.83,0,3.37,1.22,3.88,2.91l.71-.08c-.29-2.17-2.13-3.85-4.36-3.85s-4.15,1.75-4.37,4l.24-.02c.49-1.71,2.05-2.96,3.9-2.96Z"/><path class="e" d="m94.11,231.68l.12-1.05h.37s-.03,1.5-.03,1.5c2.04,1.93,4.35,3.67,6.32,4.11.33-8.09.95-14.11,1.05-22.41l.17-.02.34,2.94,5.59,2.38c.77-1.49,1.83-3.1,3.16-4.07l-6.59-3.49c-1.36-2.56-2.76-5.57-4.64-7.97.92,1.8,1.71,4.27,1.55,7.31h-8.81l-.72,4.09-3.46.5-.25,1.4.05,7.41c.2.09.47.21.69.35.58.37.5.91.48,1.56,0,.11,0,.22-.01.33.74.93,2.51,3.09,4.62,5.14Zm4.86-19.49h1.77v1.26h-1.77v-1.26Zm-5.1,0h1.77v1.26h-1.77v-1.26Z"/><path class="e" d="m88.1,193.95c4.36-.47,8.72-.95,13.07-1.43.23-.03.41-.08.38-.35l-.07-.62c-.02-.22-.23-.3-.44-.35l-.71-.17c-.18-.04-.31-.21-.36-.38-1.73-7.74-12.74-5.82-11.97,1.36,0,.06-.06.1-.13.12-.12.04-.21.16-.19.29l.14,1.27c.02.15.15.26.3.24Zm4.95-6.87c2.23,0,4.07,1.68,4.36,3.85l-.71.08c-.51-1.68-2.05-2.91-3.88-2.91s-3.41,1.25-3.9,2.96l-.24.02c.22-2.25,2.1-4,4.37-4Z"/><path class="e" d="m94.25,248.66c.03.92.09,2.27.44,2.27l8.25-.02c.54-.03.58-2.46-.32-2.76l-2.17-.62.3-7.74c-2.05-.32-4.23-1.58-6.27-3.16l-.23,12.04Z"/><path class="e" d="m111.3,220.51l.94.4c.79,0,2.17-2.4,2.22-3.62-.37.12-.74.29-1.11.54-.63.42-1.36,1.39-2.05,2.68Z"/><path class="e" d="m84.73,228.8c.08,0,.15.02.24.03.64.1,1.38.17,1.99.19-.04-.05-.09-.11-.13-.16-.62-.03-1.38-.05-2.09-.06Z"/><path class="e" d="m90.73,200.99c1.95,1.47,4.37,4.17,4.79,8.7h4.46c-.1-3.33-1.44-5.77-2.44-7.14-1.64,1.49-4.7-.96-6.81-1.56Z"/><path class="e" d="m89.79,197.35c.69,1.15,2.2,2.26,3.83,2.64.78.12.98.12,1.75,0,1.58-.38,2.97-1.49,3.52-2.64.39-.82.59-2.46.63-3.95-3.54.39-7.08.78-10.62,1.16.22,1.11.53,2.18.89,2.78Z"/><path class="e" d="m87.68,229.91c-.08,0-.16.02-.23.02-.18,0-.38,0-.59,0l-.89,18.75c0,.92-.15,2.27.21,2.27h6.94c.39-.03.42-2.46-.23-2.76l-.69-.25,1.42-11.99c-2.41-2.01-4.55-4.37-5.92-6.01Z"/><path class="e" d="m87.45,225.35l1.08.05s-.09-.08-.17-.12c-.3-.14-.61-.26-.92-.38l-.06-8.1,1.18-6.58.87.16-.69,3.86,2.21-.32.74-4.23h2.27c-.56-5.44-4.38-7.8-5.8-8.49-1.05.38-1.93,1.06-2.65,1.91-2.57,3.06-2.26,9.47-2.77,13.53.17,3.11.28,5.73.42,8.63.36-.02.73-.03,1.1-.03,1.06,0,2.13.05,3.18.1Z"/><path class="d" d="m121.01,209.96c-.24.02-2.96,2.37-3.25,2.71l.04.57-1.39.28.03.52c-1.64.06-3.01.21-4.72,1.35-1.62,1.09-2.89,3.34-3.67,5.08-2.3,5.11-1.23,10.72-3.05,14.45-.61,1.25-1.62,2.08-3.36,2.02-5.18-.17-13-10.49-13.02-10.52l-.33-.43c-1.74-.07-3.57-.19-5.3-.11-7.55.36-16.46,9.31-17.4,16.45-.48,3.66,1.31,6.38,4.8,7.5,4.16,1.33,9.12.33,12.91-1.64.68-.35,1.3-.67,2.01-.85l.11-2.4c-1.2.18-2.12.66-3.17,1.2-3.23,1.67-7.61,2.63-11.16,1.49-2.42-.77-3.55-2.47-3.21-5,.8-6.02,8.8-14.13,15.23-14.44,1.06-.05,3.06.02,4.02.06,1.63,2.05,8.88,10.81,14.45,10.99,2.85.1,4.51-1.26,5.51-3.31,2.06-4.21.82-9.5,3.08-14.51.58-1.28,1.66-3.31,2.85-4.12,1.17-.79,2.33-.93,3.56-.97l.03.56h1.49s.05.57.05.57c.34.29,3.39,2.2,3.63,2.18l5.88-.46-.75-9.7-5.88.46Z"/><rect class="e" x="128.03" y="215.56" width="3.64" height="1.56" transform="translate(-16.24 10.62) rotate(-4.41)"/><rect class="e" x="127.69" y="211.21" width="3.64" height="1.56" transform="translate(-15.9 10.58) rotate(-4.41)"/><path class="d" d="m122.66,162.86v1.35h-53.66v-1.23c.98-.36,3.74-.12,5.05-.12h48.6Z"/><path class="d" d="m114.86,141.24h-1.81v8.44c.01.44.31.88.77,1.31-.38.06-.77-.07-1.05-.35-.22-.22-.36-.53-.36-.86v-9.96h-.69v-.98h3.83v.98h-.69v1.43h0Zm1.21-.21l.69-.24v-3.16h-6.25v3.16l.69.24v8.75c0,.67.27,1.28.72,1.72.95.95,2.49.95,3.44,0,.44-.44.71-1.05.71-1.72v-8.75Z"/><path class="e" d="m76.73,156.75s8,2.16,9.19,2.43c1.19.27,8.53,1.91,9.68,1.86,4.44-.19,4.14-4.01,4.07-4.58.04.05.08.1.13.15.38.38.95.6,1.61.6h9.94c.81,0,1.47-.34,1.81-.93.25-.43.3-.95.17-1.47l9.04,6.84-53.13-.18m30.07-6.32c-.08-.19-.17-.37-.27-.56-.25-.45-.74-.87-1.63-1.13h2.63l-.36.62c-.21.37-.33.72-.37,1.07Z"/><path class="e" d="m111.91,153h-.03l.03.05v-.05Z"/><path class="e" d="m109.69,133.02c.67,0,1.21-.54,1.21-1.21s-.54-1.21-1.21-1.21-1.21.54-1.21,1.21.54,1.21,1.21,1.21Z"/><path class="e" d="m106.23,136.39c.92,0,1.66-.74,1.66-1.66s-.74-1.66-1.66-1.66-1.66.74-1.66,1.66.74,1.66,1.66,1.66Z"/><path class="e" d="m106.05,131.16c.54,0,.97-.43.97-.97s-.43-.97-.97-.97-.97.43-.97.97.43.97.97.97Z"/><path class="b" d="m101.61,155.05l1.19-2.05h-.56l-1.11,1.93c-.23.39-.27.61.26.61h9.95c.47,0,.49-.18.33-.48h-10.05Z"/><path class="e" d="m112.64,154.33l-.7-1.21-.04-.07-.03-.05-2.82-4.89v-7.27l.48-.24v-3.06h-6.35v3.06l.48.24v7.27l-2.82,4.89-.76,1.31c-.18.32-.31.66-.32,1.04,0,.96.78,1.4,1.64,1.4h9.94c1.45,0,1.98-1.23,1.29-2.42Zm-1.31,1.21h-9.95c-.53,0-.49-.22-.26-.61l1.11-1.93,2.64-4.57v-8.8h-.48v-.87h3.92v.87h-.48v5.33h-2.48v3.6l-2.56,4.44-1.19,2.05h10.05c.16.31.14.48-.33.48Z"/><path class="d" d="m98.93,142.54c1.3-.07,2.59.58,3.28,1.78.98,1.71.4,3.89-1.31,4.87-1.71.98-3.89.4-4.87-1.31-.7-1.2-.61-2.64.1-3.73l-1.85-3.2-.48.09-1.05-1.81c1.2-.69,2.39-1.38,3.59-2.07l1.05,1.81-.32.37,1.85,3.2h0Zm-2.25.01l.87-.5-1.63-2.83.32-.37-.23-.4c-.64.37-1.29.74-1.93,1.12l.23.4.48-.09,2.48,4.3-.32.49c-.54.82-.57,1.88-.07,2.73.72,1.25,2.32,1.68,3.57.96.57-.33.96-.83,1.16-1.4-.41.65-1.11,1.15-1.87,1.36-.98.27-2.06-.15-2.59-1.07-.43-.75-.41-1.68.06-2.4l.43-.65-.95-1.64Z"/><path class="h" d="m139.68,179.5c0,22.75,18.51,41.27,41.27,41.27s41.27-18.51,41.27-41.27-18.51-41.27-41.27-41.27-41.27,18.51-41.27,41.27Zm1.03,0c0-22.19,18.05-40.25,40.24-40.25s40.24,18.05,40.24,40.25-18.05,40.25-40.24,40.25-40.24-18.06-40.24-40.25Z"/><path class="h" d="m162.98,213.38c-.06.18-.06.26,0,.29.06.03.12-.02.19-.08l5.06-4.39.23,6.75c0,.12.02.17.07.19.05.02.11-.03.17-.12l3.2-5.47c.18-.32.37-.65.68-.57.14.03.2.06.28.09.04.02.1.02.11,0,.03-.06-.03-.11-.12-.15-.24-.11-.67-.27-.75-.3-.07-.03-.48-.25-.81-.39-.11-.05-.17-.05-.2,0-.01.03.02.06.05.07.05.03.18.09.31.2.12.08.17.24.11.38-.07.15-.14.31-.21.45l-2.18,3.94-.04-.02c0-.28-.03-2.84-.05-3.04,0-.11-.08-1.97-.12-2.51-.02-.39-.03-.5-.09-.53-.08-.04-.14.03-.5.34l-4.2,3.62h-.03s1.6-4.75,1.6-4.75c.05-.17.13-.31.18-.3.05.01.07,0,.09-.03.02-.04-.01-.09-.21-.2-.31-.17-1.26-.62-1.45-.71-.11-.05-.2-.06-.22,0-.02.03,0,.05.05.07.09.04.32.14.54.33.33.29.17.81.06,1.15l-1.82,5.68h0Z"/><path class="h" d="m161.69,203.82c-.38-.27-.85-.56-1.16-.64-.14-.03-.16-.03-.28.06-.21.16-.65.62-.68.66-.03.05-.05.1-.02.12.04.03.06.01.12-.04.09-.09.36-.3.58-.34.41-.07.8.13,1.24.45,1.26.92,1.38,2.58.56,3.71-.44.6-.92,1.05-1.65,1.15-.35.05-.89.01-1.67-.55-.52-.38-.86-.87-.94-1.19-.06-.24.02-.55.19-.78.06-.08.08-.13.04-.16-.04-.03-.07,0-.14.08-.07.08-.31.41-.46.6-.17.2-.24.26-.27.31-.02.03-.03.07.03.12.18.15.34.32.54.53.25.26.57.52.8.69.91.66,1.65.77,2.26.68.91-.14,1.54-.74,1.83-1.13.41-.56.76-1.34.56-2.26-.16-.76-.6-1.41-1.48-2.05h0Z"/><path class="h" d="m154.28,205.33c.07-.46.3-2.08.5-3.71.18-1.49.38-3.47.38-3.61.06-.72.07-.88.02-.94-.04-.05-.09-.04-.58.37l-4.35,3.63c-.44.37-.63.48-.89.28-.1-.07-.14-.12-.17-.16-.04-.05-.09-.06-.12-.04-.04.04,0,.09.06.17.25.3.48.53.55.61.07.08.34.46.62.79.08.09.13.14.18.1.03-.02.04-.05,0-.1-.05-.06-.19-.24-.27-.39-.13-.28-.01-.47.46-.88l3.69-3.24c-.05.44-.27,2-.44,3.4-.27,2.16-.53,4.27-.56,4.48-.01.13-.07.4-.02.46.05.06.15.01.44-.23l4.25-3.55c.67-.56.92-.71,1.12-.57.13.08.25.21.3.26.03.04.06.05.1.02.05-.04.02-.09-.04-.17-.28-.33-.56-.62-.62-.69-.06-.07-.28-.38-.64-.8-.07-.09-.13-.12-.17-.08-.03.02-.03.06,0,.1.06.07.19.23.27.41.11.25-.02.49-.62,1.01l-3.46,3.07h0Z"/><path class="h" d="m151.43,196.18c.83-.42,1.51-.77,1.89-.91.27-.09.48-.15.6,0,.06.07.13.16.16.24.03.05.06.06.09.04.05-.03.05-.08,0-.17-.13-.26-.43-.79-.46-.83-.13-.25-.37-.85-1.03-2.15-.17-.33-.21-.4-.46-.35-.2.05-.82.28-.89.31-.06.03-.13.06-.1.12.02.04.07.04.17.01.38-.12.61-.1.82.07.21.17.4.55.51.78.43.84.38,1.03-.2,1.36-.17.1-1.18.6-1.47.75l-.76.39s-.07.01-.09-.03c-.07-.15-.49-1.01-.58-1.25-.14-.35-.03-.5.07-.6.09-.09.18-.14.27-.18.04-.02.07-.06.05-.1-.03-.06-.12-.01-.19.02-.06.03-.39.18-.57.25-.3.12-.47.15-.52.18-.05.03-.06.05-.05.08.02.04.08.05.18.07.13.03.2.14.33.34.12.19.66,1.25.71,1.36.02.04,0,.07-.06.09l-2.37,1.21c-.06.03-.09.03-.11,0-.05-.1-.52-1.04-.57-1.19-.19-.49-.13-.63-.02-.76.08-.1.22-.18.28-.21.07-.03.1-.07.08-.13-.02-.04-.08-.02-.13-.01-.11.04-.5.21-.59.25-.25.1-.38.11-.44.14-.04.02-.07.05-.06.07.02.04.07.06.1.1.05.06.14.19.23.35.11.19.98,1.91,1.01,1.96.02.04.27.6.47.99.05.1.09.13.14.1.04-.02.04-.06.02-.09-.04-.08-.1-.23-.12-.31-.08-.31.02-.45.3-.62.27-.16.51-.28,1.85-.96l1.51-.77h0Z"/><path class="h" d="m148.84,190.4c.89-.26,1.62-.47,2.03-.53.28-.04.5-.05.59.12.04.08.09.18.12.27.02.06.05.07.08.06.06-.02.06-.07.03-.17-.08-.28-.28-.86-.29-.9-.08-.27-.2-.91-.6-2.31-.1-.36-.12-.44-.39-.43-.21,0-.86.12-.93.14-.06.02-.14.04-.12.1.01.05.06.05.16.04.4-.04.62.01.79.23.17.21.29.62.36.86.26.91.18,1.08-.45,1.3-.19.06-1.27.36-1.59.45l-.82.23s-.07,0-.08-.05c-.05-.16-.29-1.08-.33-1.34-.07-.37.07-.5.18-.58.11-.07.2-.1.3-.12.05-.01.08-.04.06-.09-.02-.07-.12-.04-.2-.01-.06.02-.41.1-.6.13-.31.06-.48.06-.54.07-.06.02-.07.04-.06.07.01.04.07.06.16.11.12.06.17.18.26.4.08.21.41,1.35.44,1.47.01.05-.01.06-.08.08l-2.56.74c-.06.02-.1,0-.11-.03-.03-.1-.31-1.12-.34-1.28-.09-.52,0-.64.13-.75.1-.08.25-.13.32-.15.07-.02.12-.05.1-.11-.01-.04-.07-.04-.12-.04-.12.01-.53.11-.63.13-.27.05-.39.03-.46.05-.05.01-.08.04-.07.06.01.05.06.07.08.12.04.07.1.21.16.39.07.21.6,2.06.62,2.12.01.05.15.64.27,1.06.03.1.06.14.12.13.04-.01.04-.05.03-.09-.02-.08-.06-.25-.06-.32-.02-.32.1-.44.41-.55.29-.11.55-.18,2-.59l1.63-.47h0Z"/><path class="h" d="m150.26,183.21c-.06-.52-.24-1.02-.58-1.4-.55-.6-1.3-.67-1.69-.62-.77.09-1.33.44-2.08,1.68l-.18.29c-.63.99-.92,1.3-1.47,1.37-.7.09-1.17-.38-1.26-1.04-.11-.88.26-1.19.36-1.26.1-.07.35-.16.46-.18.08-.02.12-.04.12-.09,0-.05-.08-.06-.23-.04-.65.08-.97.08-1.02.09-.05,0-.06.03-.06.1.01.08,0,.15,0,.34-.03.25-.03.53.01.9.15,1.22.94,1.9,1.97,1.77.65-.08,1.22-.38,1.93-1.5l.3-.48c.58-.91.93-1.23,1.59-1.31.61-.07,1.33.29,1.44,1.21.08.64-.11,1.31-.8,1.54-.13.04-.27.06-.35.07-.08,0-.1.02-.1.08,0,.05.06.06.16.06.15,0,.54-.02,1.02-.08.26-.03.3-.05.35-.19.14-.42.15-.86.1-1.32h0Z"/><path class="h" d="m147.06,178.7c.93.06,1.69.12,2.09.19.28.06.48.12.51.32.01.09.02.21.02.29,0,.06.02.08.05.08.06,0,.08-.04.09-.15.02-.29.03-.9.04-.95.02-.28.12-.92.22-2.38.03-.38.03-.45-.21-.54-.2-.06-.85-.18-.93-.19-.07,0-.15,0-.15.05,0,.05.03.07.14.1.39.09.58.23.66.48.09.26.06.68.04.93-.07.94-.2,1.08-.87,1.06-.2,0-1.32-.09-1.65-.11l-.85-.06s-.06-.02-.06-.07c.01-.16.1-1.12.15-1.38.06-.37.24-.45.37-.48.13-.03.22-.02.32-.02.05,0,.09-.01.09-.06,0-.07-.1-.07-.18-.08-.07,0-.42-.05-.61-.08-.32-.05-.48-.11-.53-.11-.06,0-.08.01-.08.04,0,.04.04.08.11.15.09.09.1.23.1.46,0,.22-.08,1.41-.09,1.53,0,.05-.03.06-.1.05l-2.66-.18c-.07,0-.1-.03-.09-.07,0-.11.09-1.16.12-1.32.09-.52.22-.61.38-.66.12-.04.28-.04.35-.03.08,0,.13-.01.13-.07,0-.04-.05-.06-.1-.07-.11-.03-.54-.08-.63-.09-.27-.05-.38-.1-.45-.11-.05,0-.09,0-.09.03,0,.05.03.09.04.14.01.08.02.23.02.42,0,.22-.14,2.14-.14,2.21,0,.05-.07.65-.11,1.09,0,.1,0,.15.07.16.04,0,.06-.03.06-.07,0-.09.03-.25.05-.33.09-.31.25-.38.58-.38.31,0,.58.02,2.08.13l1.7.12h0Z"/><path class="h" d="m151.96,168.81c.19-.49.26-1.01.14-1.51-.2-.79-.83-1.2-1.2-1.34-.72-.28-1.38-.24-2.62.5l-.3.18c-1.02.58-1.42.72-1.94.52-.66-.25-.86-.89-.62-1.51.32-.83.79-.93.91-.94.12-.02.38.02.5.06.08.02.12.03.14-.03.02-.04-.04-.09-.18-.14-.61-.24-.9-.39-.94-.4-.04-.02-.07,0-.1.07-.03.07-.06.14-.17.3-.14.2-.28.45-.41.8-.44,1.14-.06,2.12.91,2.49.61.24,1.25.23,2.4-.42l.49-.28c.94-.53,1.4-.65,2.02-.42.58.22,1.04.88.71,1.75-.23.6-.71,1.1-1.43.98-.14-.02-.26-.07-.34-.1-.07-.03-.1-.03-.12.03-.02.05.02.08.12.13.14.06.49.24.94.41.24.09.28.1.39,0,.32-.3.54-.69.71-1.12h0Z"/><path class="h" d="m148.48,159.89l.65-1.03c.5-.78.8-.86,1.07-.75l.1.05c.12.06.16.06.18.02.02-.03,0-.08-.07-.12-.09-.05-.65-.42-.89-.57-.05-.03-.1-.06-.12-.02-.04.07-.09.34-.41.87l-1.87,3.1c-.06.1-.26.41-.43.63-.15.21-.28.25-.32.3-.02.03.07.13.11.18.06.06.67.65.75.7.05.03.08.03.1,0,.02-.03.02-.07-.03-.13-.04-.06-.09-.12-.17-.29-.12-.25-.06-.49.24-1l.72-1.24,3.5,2.1c.8.48,1.45.87,1.77,1.12.22.18.38.33.31.51-.03.08-.07.19-.12.27-.03.05-.01.08.01.1.05.03.09,0,.15-.09.15-.25.44-.79.46-.83.03-.04.36-.55.64-1,.05-.09.05-.15.01-.17-.02-.01-.06-.01-.09.04-.04.07-.17.25-.26.35-.18.23-.4.17-.65.05-.37-.17-1.03-.56-1.82-1.04l-3.5-2.11h0Z"/><path class="c" d="m155.28,160.01c.24.45.39.84.13,1.21-.04.06-.13.17-.17.22-.03.04-.04.08-.02.1.04.04.1,0,.18-.08.3-.34.64-.75.71-.83.07-.08.37-.37.53-.54.06-.07.08-.12.04-.16-.03-.03-.06-.02-.11.03l-.06.07c-.11.12-.31.21-.45.08-.13-.12-.27-.31-.39-.53l-.88-1.57s-.02-.09,0-.12l1.39-1.54s.06-.04.1-.03l2.37.92c.16.06.18.16.16.22-.02.04-.02.07,0,.09.04.04.11-.04.25-.17.46-.48.93-1.01,1.03-1.11.07-.08.11-.16.07-.2-.04-.03-.07,0-.11.03-.07.07-.17.17-.3.25-.18.11-.48.22-1.35-.1-1.49-.54-5.47-2.09-5.83-2.22-.3-.11-.36-.12-.4-.08-.04.04-.02.11.14.41l2.99,5.64h0Zm-.68-2.43s-.05.02-.07-.02l-1.37-2.38c-.08-.13-.04-.17.1-.11l2.55,1.06s.06.04.02.07l-1.23,1.37h0Z"/><path class="h" d="m158.31,149.03l.97-.73c.74-.56,1.05-.52,1.26-.31l.08.08c.09.1.12.11.16.08.03-.02.03-.07-.02-.14-.07-.08-.45-.63-.63-.86-.03-.05-.07-.09-.11-.06-.06.05-.21.28-.69.66l-2.85,2.23c-.09.07-.39.28-.63.43-.22.15-.35.13-.41.17-.03.02.02.15.04.2.03.07.39.85.45.92.04.04.07.06.09.04.03-.03.04-.06.02-.14-.02-.07-.04-.14-.05-.34-.02-.28.12-.47.59-.85l1.11-.9,2.52,3.22c.57.73,1.04,1.33,1.25,1.68.14.24.23.44.11.59-.06.07-.13.16-.2.21-.05.04-.04.07-.02.09.04.05.09.03.17-.03.23-.18.69-.58.73-.61.04-.03.54-.38.95-.71.08-.07.1-.12.07-.16-.02-.02-.05-.03-.1,0-.07.05-.25.17-.37.24-.25.15-.43.02-.62-.19-.29-.29-.76-.89-1.33-1.62l-2.52-3.22h0Z"/><path class="h" d="m164.85,149.7c.42.83.77,1.51.91,1.89.09.27.15.48,0,.6-.07.06-.16.13-.24.16-.05.03-.05.06-.04.09.03.05.08.05.17,0,.26-.13.79-.43.83-.46.25-.13.85-.37,2.15-1.03.34-.17.4-.21.35-.46-.05-.2-.28-.82-.31-.89-.03-.06-.07-.13-.12-.1-.04.02-.04.07,0,.17.12.38.1.61-.07.82-.18.21-.55.4-.78.52-.84.43-1.03.38-1.36-.2-.1-.18-.6-1.18-.75-1.47l-.39-.76s-.01-.07.03-.09c.15-.07,1.01-.49,1.25-.58.35-.14.51-.03.6.07.09.09.13.18.18.27.02.04.06.07.1.05.06-.03.01-.12-.02-.19-.03-.06-.17-.39-.24-.57-.12-.3-.15-.47-.18-.52-.03-.05-.05-.06-.08-.05-.04.02-.05.08-.07.18-.04.12-.14.2-.34.33-.19.12-1.25.66-1.36.71-.04.02-.07,0-.1-.06l-1.21-2.37c-.03-.06-.03-.1,0-.11.1-.05,1.04-.52,1.19-.58.49-.18.63-.12.76-.02.1.08.18.22.21.28.04.07.07.1.13.08.03-.02.02-.08.01-.12-.03-.11-.21-.5-.25-.59-.1-.25-.11-.38-.14-.44-.02-.04-.05-.07-.08-.06-.04.02-.06.08-.1.11-.06.05-.19.14-.35.23-.19.11-1.91.98-1.97,1.01-.04.02-.6.27-.98.47-.1.05-.13.09-.1.14.02.03.06.03.1.02.08-.04.23-.1.31-.12.32-.09.45.02.62.3.16.27.28.51.96,1.85l.77,1.52h0Z"/><path class="h" d="m186.99,145.8c-.36,1.36-.18,2.11.15,2.67.49.8,1.43,1.09,1.74,1.18.55.15,1.28.24,2.11-.17.92-.46,1.34-1.55,1.61-2.56l.27-1c.39-1.46.46-1.72.56-2.01.1-.32.22-.46.49-.44.12,0,.17.02.24.03.04.01.08,0,.09-.04.01-.06-.03-.09-.13-.11-.28-.08-.72-.16-.79-.18-.06-.01-.56-.18-.98-.29-.1-.03-.15-.02-.17.03-.01.04.02.07.06.08.08.02.24.07.31.11.29.15.33.32.26.64-.06.3-.13.57-.52,2.02l-.31,1.17c-.26.96-.58,1.73-1.15,2.14-.45.31-1.08.43-1.65.28-.53-.14-.93-.34-1.27-.89-.3-.49-.45-1.15-.08-2.49l.35-1.31c.39-1.45.46-1.72.56-2.01.1-.32.22-.47.49-.44.12.01.17.02.24.03.04.01.08,0,.09-.04.02-.06-.03-.09-.13-.12-.28-.07-.85-.2-.93-.22-.08-.02-.64-.2-1.06-.32-.11-.03-.16-.02-.17.03-.01.04.02.07.06.08.08.02.24.07.31.11.29.15.33.32.26.64-.06.3-.13.57-.52,2.02l-.37,1.36h0Z"/><path class="h" d="m197.55,146.35c.08.46.39,2.06.73,3.67.31,1.47.77,3.4.81,3.54.17.7.22.85.29.89.06.04.1,0,.43-.54l2.93-4.84c.3-.5.44-.66.75-.55.12.04.17.07.22.09.06.04.1.03.12,0,.03-.05-.02-.09-.11-.15-.34-.2-.63-.34-.72-.4-.09-.05-.47-.32-.85-.54-.1-.06-.17-.09-.2-.04-.02.03-.03.06.03.1.06.04.25.16.38.29.22.22.16.44-.15.98l-2.43,4.26c-.1-.43-.39-1.99-.69-3.36-.45-2.13-.89-4.21-.93-4.42-.03-.13-.06-.4-.13-.44-.07-.04-.15.04-.34.36l-2.86,4.74c-.45.75-.64.97-.88.9-.15-.03-.31-.11-.37-.15-.04-.03-.08-.02-.09,0-.04.06,0,.1.09.15.37.22.74.41.81.45.07.05.39.27.86.55.1.06.16.07.19.02.02-.03,0-.06-.04-.09-.08-.05-.25-.16-.38-.3-.19-.2-.14-.47.25-1.16l2.28-4.03h0Z"/><path class="h" d="m205.58,153.88c1.05-1.08,1.23-1.28,1.46-1.49.25-.23.42-.29.64-.15.1.07.14.1.2.15.02.03.07.04.1.01.04-.04.02-.09-.06-.16-.21-.2-.67-.6-.7-.64-.03-.03-.45-.48-.68-.7-.08-.07-.13-.09-.17-.05-.03.03-.01.07.02.1.05.05.13.14.19.24.12.18.07.37-.14.62-.2.24-.39.43-1.43,1.51l-1.18,1.22c-.64.67-1.18,1.22-1.49,1.47-.22.17-.4.29-.57.19-.08-.05-.17-.11-.23-.17-.04-.04-.08-.03-.1-.01-.04.04-.02.09.06.16.21.2.67.6.7.64.03.03.45.48.83.85.08.07.13.09.16.05.02-.02.03-.05-.02-.09-.06-.06-.2-.22-.29-.33-.18-.23-.08-.42.1-.64.25-.33.78-.87,1.42-1.54l1.18-1.22h0Z"/><path class="h" d="m209.8,156.03c.2-.35.37-.62.47-.7.06-.04.13-.07.23-.02.08.04.2.18.26.26.04.05.07.06.11.03.04-.03,0-.11-.1-.25-.23-.29-.52-.61-.58-.69-.07-.09-.39-.54-.67-.91-.09-.12-.16-.19-.21-.16-.03.02-.04.06,0,.1.04.04.13.17.19.31.13.33.14.51-.16,1.01l-3.21,5.51c-.25.43-.33.55-.26.64.06.08.21.01.83-.13.51-.12,1.6-.42,3.07-.82,1.24-.34,2.45-.68,2.73-.76.68-.2.9-.19,1.04-.14.2.07.33.24.38.29.05.06.09.08.12.05.04-.03.02-.09-.05-.17-.17-.22-.45-.53-.49-.58-.07-.09-.32-.46-.56-.76-.09-.12-.14-.16-.19-.12-.04.03-.02.07.02.12.07.08.15.2.19.31.02.11-.04.19-.1.24-.07.05-.2.11-.35.16-.68.26-4.13,1.32-5.5,1.67l2.76-4.51h0Z"/><path class="h" d="m211.28,164.41c-.84.39-1.53.71-1.92.84-.27.08-.48.13-.6-.03-.06-.07-.12-.17-.16-.25-.02-.05-.06-.06-.09-.04-.05.02-.05.08,0,.17.12.26.4.8.43.85.12.25.34.86.96,2.19.16.34.19.41.45.37.2-.04.83-.25.9-.28.06-.03.13-.06.1-.11-.02-.04-.06-.04-.17-.02-.39.11-.61.08-.81-.1-.2-.18-.38-.57-.49-.8-.4-.86-.35-1.04.25-1.35.18-.09,1.2-.56,1.5-.7l.77-.36s.07,0,.09.03c.07.15.46,1.02.54,1.27.12.36.01.51-.09.6-.1.09-.19.13-.27.17-.04.02-.07.05-.05.1.03.06.13.02.2-.02.06-.03.39-.16.58-.23.3-.11.47-.13.52-.16.05-.02.06-.05.05-.08-.02-.04-.08-.05-.18-.08-.12-.04-.2-.15-.31-.35-.11-.19-.61-1.27-.67-1.38-.02-.04,0-.07.06-.09l2.42-1.13c.06-.03.1-.02.11.01.04.1.48,1.05.53,1.21.17.5.1.63,0,.76-.08.09-.23.17-.29.2-.07.03-.11.07-.08.12.02.04.08.03.12.02.11-.03.51-.19.6-.23.26-.09.38-.09.45-.12.04-.02.07-.05.06-.07-.02-.04-.07-.06-.1-.1-.05-.06-.13-.19-.22-.36-.1-.2-.91-1.94-.94-2-.02-.04-.25-.61-.44-1-.04-.1-.08-.13-.14-.11-.03.02-.03.06-.02.09.04.08.1.23.11.31.07.32-.03.45-.32.61-.27.15-.52.26-1.88.9l-1.54.72h0Z"/><path class="c" d="m213.58,170.3c-.91.19-1.65.35-2.06.39-.28.02-.5.02-.58-.16-.04-.08-.08-.19-.1-.28-.01-.06-.04-.07-.07-.06-.06.01-.06.06-.04.17.06.28.22.87.22.88.01.05.11.65.22,1.17.02.1.06.15.11.13.03,0,.05-.03.04-.09-.02-.09-.04-.3-.05-.43-.02-.29.17-.39.44-.48.39-.13,1.13-.29,2.04-.48l.23-.05s.08,0,.09.05l.23,1.17c.01.06,0,.09-.03.13-.2.24-.75.82-1.18,1.33-.59.69-.99,1.12-1.12,1.57-.08.27-.08.52.04,1.05l.14.67c.04.17.07.22.13.21.02,0,.05-.05.04-.1-.01-.06-.04-.19-.05-.37-.01-.24,0-.67.43-1.3.47-.67,1.18-1.49,2-2.48.96.68,1.73.83,2.42.68.65-.14,1.03-.65,1.15-.93.25-.58.17-1.22.05-1.82-.06-.29-.24-1-.27-1.11-.01-.05-.11-.65-.2-1.07-.02-.1-.05-.15-.11-.13-.04,0-.05.05-.04.09.02.08.04.25.04.33,0,.33-.14.43-.45.52-.3.08-.56.14-2.04.45l-1.66.35h0Zm4.09-.08c.06-.01.1,0,.13.05.05.09.13.34.19.62.22,1.01-.36,1.79-1.54,2.04-.72.15-1.28.02-1.58-.27-.2-.18-.28-.44-.33-.67-.09-.42-.12-.86-.06-1.02.02-.05.05-.08.1-.09l3.09-.66h0Z"/><path class="h" d="m211.86,178.75c.02.52.15,1.04.45,1.44.5.65,1.24.78,1.63.76.77-.03,1.36-.32,2.22-1.49l.2-.28c.71-.93,1.03-1.22,1.58-1.23.71-.03,1.14.48,1.16,1.15.03.89-.37,1.16-.47,1.22-.1.06-.36.13-.48.14-.08.01-.12.02-.12.08,0,.05.07.07.23.06.66-.02.98,0,1.02,0,.05,0,.07-.02.06-.1,0-.08,0-.15.04-.34.05-.24.08-.52.07-.9-.04-1.23-.77-1.97-1.81-1.94-.66.02-1.25.28-2.05,1.33l-.34.45c-.66.85-1.03,1.15-1.7,1.17-.62.02-1.3-.41-1.33-1.34-.02-.65.23-1.29.93-1.46.14-.03.27-.04.36-.04.08,0,.11-.01.1-.07,0-.05-.05-.06-.16-.07-.16,0-.54-.03-1.03-.01-.26,0-.3.02-.36.16-.18.4-.23.85-.21,1.3h0Z"/><path class="h" d="m216.09,184.91c1.5.19,1.76.22,2.07.27.33.06.49.16.5.42,0,.12,0,.18,0,.24,0,.04,0,.08.05.08.06,0,.08-.04.09-.14.04-.29.08-.9.09-.94,0-.05.11-.65.15-.96.01-.11,0-.16-.06-.16-.04,0-.06.03-.07.07,0,.07-.04.19-.08.29-.07.21-.25.28-.58.26-.31-.02-.58-.05-2.07-.24l-1.69-.21c-.92-.11-1.68-.21-2.08-.3-.27-.07-.48-.15-.49-.34,0-.09-.01-.21,0-.29,0-.06-.02-.08-.05-.09-.06,0-.08.04-.1.15-.04.29-.08.9-.09.94,0,.05-.11.65-.17,1.18-.01.11.01.16.06.16.03,0,.06-.01.06-.07.01-.09.06-.29.09-.43.07-.28.29-.31.57-.31.41,0,1.17.09,2.09.2l1.69.21h0Z"/><path class="h" d="m216.91,191.53l-.39,1.15c-.3.88-.58,1.02-.87.97l-.1-.02c-.13-.03-.16-.02-.18.02-.01.04.02.07.1.1.1.03.73.27,1,.36.05.02.11.04.13,0,.02-.07.01-.35.2-.94l1.12-3.44c.04-.11.17-.45.28-.71.1-.24.22-.3.24-.37.01-.04-.09-.11-.14-.15-.07-.04-.8-.48-.89-.51-.05-.02-.09,0-.1.02-.01.04,0,.07.06.12.06.05.11.1.23.25.17.22.17.46-.01,1.03l-.42,1.37-3.89-1.26c-.88-.29-1.61-.52-1.98-.69-.25-.12-.44-.24-.42-.43,0-.09.03-.2.06-.29.02-.05,0-.08-.03-.09-.06-.02-.09.02-.12.12-.09.28-.25.86-.27.91-.02.05-.23.61-.4,1.12-.03.1-.02.16.03.17.03,0,.06,0,.08-.06.03-.08.11-.28.17-.4.12-.26.34-.25.62-.19.4.08,1.13.31,2.01.6l3.89,1.26h0Z"/><path class="h" d="m209.75,195.08c-.14-.08-.49-.27-.83-.5-.23-.15-.38-.33-.32-.52.03-.09.07-.2.11-.27.03-.05.01-.08-.02-.09-.05-.03-.09,0-.14.1-.14.25-.41.8-.43.84-.02.04-.34.56-.6,1.03-.05.09-.05.15,0,.17.02.01.06.01.09-.04.04-.08.16-.25.25-.36.17-.23.4-.21.66-.09.37.17.73.37.86.44l.73.4c.28.15.54.3.77.6.28.35,1.61,2.63,1.79,3.1.12.31.17.46.18.68,0,.18-.05.36-.1.45-.04.07-.04.12,0,.15.03.02.08-.02.11-.08.09-.16.4-.78.43-.83.04-.07.21-.32.33-.54.05-.08.06-.14.02-.16-.04-.02-.09.02-.16.08-.08.09-.19.07-.31,0-.11-.06-.23-.17-.35-.38-.19-.32-1.44-2.42-1.71-2.78.33-.02,3.21-.08,3.53-.07.16,0,.29.01.39.07.07.04.09.11.09.2,0,.09-.03.15,0,.17.03.02.07.02.12-.08.18-.33.34-.67.37-.72.03-.04.4-.66.49-.82.04-.08.04-.12,0-.14-.04-.02-.08.01-.11.05-.04.08-.18.21-.34.29-.19.1-.51.19-.94.23-.6.05-3.09.16-3.26.14-.3-.03-.54-.04-.99-.3l-.73-.4h0Z"/><path class="h" d="m209.35,200.07c.1-.12.11-.16.07-.22l-.34-.45c-.05-.08-.11-.1-.14-.05-.03.04-.06.23-.13.4-.13.31-1.01,1.8-1.13,2.03-.08.13-.17.3-.08.37.06.05.15-.04.25-.17l1.5-1.92h0Z"/><path class="h" d="m206.29,204.77c1.06,1.03,1.72,1.73,1.77,1.78.07.07.16.13.21.07.05-.05.06-.14.08-.25.02-.1.39-2.14.4-2.21,0-.05,0-.1-.02-.12-.03-.03-.08-.04-.1-.02-.03.03-.04.05-.05.11-.08.25-.31.98-.43,1.11-.11.11-.2.05-.34-.08-.38-.37-.69-.65-1.06-1.01l-1.22-1.17c-.7-.67-1.29-1.25-1.58-1.56-.2-.22-.26-.37-.08-.64.1-.16.41-.52.49-.6.02-.03.02-.08,0-.11-.03-.03-.08-.01-.15.07-.43.44-.97,1.05-1.01,1.08-.03.03-.48.46-.99.98-.08.08-.1.13-.07.17.03.03.08.03.11,0,.06-.06.37-.33.49-.42.26-.18.39-.1.64.08.34.26.94.84,1.63,1.51l1.29,1.24h0Z"/><path class="h" d="m204.31,210.11c1.05-.82,1.25-2.14.43-3.19-.5-.64-1.6-1.11-2.68-.27-.31.24-.61.66-.64,1.06,0,.04,0,.06.02.09.02.02.06.04.08.02.02-.02.04-.05.06-.12.05-.14.14-.33.5-.61.21-.16,1.34-.64,2.33.62.47.6.55,1.44-.13,1.98-.67.52-1.78.3-2.82-1.03-1.4-1.79-1.22-3.97-.7-5.16.03-.06.03-.12,0-.16-.03-.05-.09-.05-.12-.03-.03.02-.07.07-.1.12-.56,1.19-1.24,3.84.43,5.98.9,1.16,2.29,1.55,3.36.71h0Z"/><path class="h" d="m195.33,209.28c-.52-1.02-.09-1.87.78-2.31.9-.46,1.49-.13,1.88.5.06.09.08.11.12.09.04-.02.04-.07,0-.16-.07-.2-.28-.7-.49-1.11-.05-.1-.1-.16-.26-.17-.23-.01-.8.15-1.16.33-1.53.78-2.06,2.32-1.45,3.52.51,1,1.66,1.07,2.26.93l.02.04c-.21.26-.8,1.28-.36,2.14.22.43.96,1.14,2.36.42.64-.33,1.04-.74,1.24-1,.07-.12.06-.16.02-.24-.1-.2-.32-.57-.5-.83-.05-.07-.08-.08-.11-.06-.02.01-.05.05,0,.13.34.66.06,1.25-.57,1.57-1.01.52-1.65-.17-1.83-.53-.51-1.01.22-1.9.61-2.2.1-.07.17-.14.14-.2-.03-.06-.1-.05-.28,0-.62.17-1.85.29-2.44-.86h0Z"/><path class="h" d="m193.14,216.01c1.26-.43,1.89-1.62,1.45-2.88-.27-.77-1.16-1.57-2.45-1.13-.36.13-.78.42-.95.8-.02.04-.02.06-.01.08,0,.03.04.06.07.05.03,0,.06-.04.1-.1.09-.11.25-.27.67-.42.25-.08,1.47-.17,2,1.35.25.72.05,1.54-.77,1.83-.8.28-1.78-.29-2.34-1.89-.74-2.15.15-4.15,1.02-5.11.05-.05.07-.11.05-.16-.02-.06-.07-.08-.1-.07-.04.01-.09.04-.13.09-.92.94-2.43,3.22-1.54,5.79.48,1.39,1.66,2.21,2.94,1.76h0Z"/><path class="h" d="m209.42,169.65c-2.96-9.58-12.48-18.02-22.17-19.66-.53-.22-1.94-.89-2.4-1.48l-.02-.02-.02-.02c-1.47-1.37-1.6-3.15-1.74-5.04-.11-1.46-.22-2.96-.95-4.35l-.41-.78-.28.84c-.96,2.84-3.6,5.29-6.21,7.56-1.54,1.66-5.8,4.33-9.56,6.69l-1.55.97c-10.69,7.44-15.41,19.83-12.33,32.33,2.27,10.18,11.99,20.05,21.67,21.99,0,0,3.74.78,6.43.86,4.92.14,8.64-.83,8.64-.83,3.6-1.01,7.91-3.05,12.23-6.45,6.73-5.92,10.34-14.08,10.34-22.64,0-3.3-.54-6.65-1.63-9.97Zm-27.66-21.8l.32,1.15c.57,2.05,2.52,3.56,4.4,5.03,2.96,2.31,6.02,4.7,3.69,9.13v.02s-.02.02-.02.02c-.53.8-1.24,1.48-2.03,1.93l-.68.39.12-.78c.43-2.78-1.45-4.43-3.43-6.17-2.13-1.87-4.34-3.81-3.61-7.22v-.02s1.24-3.47,1.24-3.47Zm2.39,36.78c-.75.61-1.39,1.42-1.49,2.35-.06,1.14.32,2.07,1.19,2.78-1.21.94-1.8,2.39-1.41,3.87.04.73,1.78,1.18.3,2.07-.94.89-1.11,1.93-.69,3.07.39,1.12,1.5,2.05,2.69,2.09-.07,1.45-.42,3.1-.77,4.64l-4.71.02-2.43-14.33c-.32-4.27,3.84-6.58,5.72-10.07.68-1.15.22-3.1-.52-4.06-.98-1.09-1.93-1.18-3.31-.8-1.58.67-2.76,2.71-3.9,3.93l-.94-5.61h13.9l-.36,3.62c-1.56,1.05-4.18,1.62-4.24,4.01.05.95.37,1.73.98,2.41Zm-12.59-11.46v-3.51h19.22v3.51h-19.22Zm6.4-25.95s1.09-.99,1.15-1.04c.05-.06,1.39-1.94,1.39-1.94.1-.14.29-.2.45-.13.16.06.26.23.24.4-.17,1.33-.71,2.74-1.25,4.1-1.25,3.19-2.42,6.21.58,8.77,0,0,1.42,1.24,1.42,1.24,1.97,1.65,4.21,3.53,3.83,6.41-.23,1.78-1.88,3.11-3.31,3.6-3.8,1.24-7.71-.03-10.46-3.42-.78-1.15-1.88-3.46-1.9-4.53,0,0,0-.02,0-.03v-.02c-.05-.39-.07-.76-.07-1.13,0-5.16,4.2-8.93,7.94-12.29Zm3.52,61.69c-5.94.07-10.43-1.58-10.43-1.58l.93-2.99c.57-1.76,1.02-3.17,1.36-5.25-1.29-1.12-1.8-1.62-2.44-3.06-.88-1.31-1.26-2.66-1.26-4.02,0-4.36,3.82-8.82,6.79-12.3l.89-1.05.03-.03.65-.66c.57-.65,1.61-1.32,2.36-1.07,1.31.46,1.78,1.73,1.78,2.75,0,.27-.05.52-.15.73-.66,1.4-1.76,2.57-2.82,3.7-1.69,1.8-3.28,3.5-3.28,5.99v.08c.45,2.94.92,5.49,1.37,7.96.44,2.41.9,4.91,1.34,7.76h6.05c.06-.39.88-5.49.88-5.49l.15-.05c.4-.13.64-.26.8-.34.17-.09.3-.17.47-.11.15.05.23.19.28.32.24.54,2.52,6.58,2.78,7.43,0,0-3,1.19-8.53,1.26Zm8.82-12.03l-4.94,2.36h-.04c-.65.09-1.27-.22-1.62-.82-.35-.7-.11-1.6.6-2.08l4.92-2.35h.02c.7-.21,1.37.07,1.84.77l.03.04v.05c.21.9-.09,1.65-.8,2.03Zm.49-5.14l-4.75,2.25c-.69.2-1.37-.09-1.85-.82-.36-.78-.06-1.67.69-2.07l4.73-2.25h.02c.7-.21,1.37.07,1.86.81.35.78.06,1.67-.7,2.07Zm.47-5.52l-4.96,2.37h-.06c-.79-.03-1.32-.31-1.58-.83-.45-.88.07-1.74.75-2.17h.01s4.88-2.28,4.88-2.28h.06c.79.03,1.32.31,1.58.84.36.78.06,1.67-.69,2.07Zm1.02-5.51l-.02.02h-.02c-1.14.82-2.4,1.38-3.62,1.92l-1.91.88h-.05c-.68.07-1.51-.23-1.82-1.02v-.03s-.02-.03-.02-.03c-.1-.81.19-1.47.82-1.81l4.93-2.36h.04c.95-.16,1.59.08,1.91.72.27.57.16,1.28-.25,1.71Z"/><path class="d" d="m97.48,154.36c-.12-.16-17.53-4.2-18.11-4.39-.21,0,.36-8.65-3.96-15.82v-.12s5.1-.18,7.3-2.59c2.72-2.98,2.81-6.16,2.81-6.16l-19.76-4.74s-1.77,4.13.53,7.58c.11.16,0,.35-.18.53-1.5,0-4.86,4.05-5.43,5.63-3.16,8.85-2.7,23.4-1.08,26.92,1.19.08,7.22-.04,7.55-.04l9.12-5.79s14.58,4.13,17.75,4.81c2.3.49,3.98-.42,4.66-1.91s.37-3.57-1.21-3.88Z"/><path class="d" d="m86.46,122.73c.46-10.73-6.46-13.01-6.46-13.01-.36-.67-.98-1.32-2.05-.33,0,.04-1.07-.19-3.4.33-1.61.37-5.53,1.57-8.3,8.56-.1.25-.38,1.14-.48,1.41,1.61.38,19.72,4.98,20.86,4.95,2.86.5.35-1.67-.18-1.91Zm-15.48-7.88c-.99,1.58-2.09,4.36-2.09,4.36,0,0-1.64-.25-1.73-.25,2.63-6.73,8.64-8.35,8.64-8.35,0,0-3.68,2.41-4.82,4.24Z"/><path class="d" d="m143.88,102.31c-5.68-3.01-9.68-2.56-11.45-4.27,4.38-1.87,7.52-6.77,7.52-12.53,0-.45-.02-.89-.06-1.33h-22.74c-.04.44-.06.88-.06,1.33,0,5.96,3.34,11,7.96,12.72-1.44,1.6-9.31,1.83-12.54,5.17-4.16,4.29-3.74,8.59-3.74,8.59h40.54s.11-6.75-5.43-9.67Z"/><path class="d" d="m117.27,83.76h22.38s.01-.06.01-.09c.68-.22,1.18-.86,1.18-1.61,0-.86-.65-1.57-1.48-1.68-1.21-5.39-3.97-9.06-7.96-10.32l-.78,11.37h-.58l.19-11.67s-.07-.02-.1-.02c-.29-.86-1.1-1.48-2.06-1.48h-.19c-.97,0-1.79.65-2.07,1.54-.04,0-.07.02-.11.03v11.61h-.43l-.95-11.24c-3.71,1.28-6.29,4.59-6.93,10.17h-.13c-.93,0-1.7.76-1.7,1.7s.76,1.7,1.7,1.7Z"/><path class="e" d="m143.88,82.75c-1.32,0-2.39-1.07-2.39-2.39s1.07-2.39,2.39-2.39,2.39,1.07,2.39,2.39-1.07,2.39-2.39,2.39Zm0-3.94c-.85,0-1.55.69-1.55,1.55s.69,1.55,1.55,1.55,1.55-.69,1.55-1.55-.69-1.55-1.55-1.55Z"/><path class="e" d="m155.24,80.36c-1.32,0-2.39-1.07-2.39-2.39s1.07-2.39,2.39-2.39,2.39,1.07,2.39,2.39-1.07,2.39-2.39,2.39Zm0-3.94c-.85,0-1.55.69-1.55,1.55s.69,1.55,1.55,1.55,1.55-.69,1.55-1.55-.69-1.55-1.55-1.55Z"/><path class="e" d="m150.1,76.44c-1.32,0-2.39-1.07-2.39-2.39s1.07-2.39,2.39-2.39,2.39,1.07,2.39,2.39-1.07,2.39-2.39,2.39Zm0-3.94c-.85,0-1.55.69-1.55,1.55s.69,1.55,1.55,1.55,1.55-.69,1.55-1.55-.69-1.55-1.55-1.55Z"/><path class="e" d="m164.32,70.43c-1.32,0-2.39-1.07-2.39-2.39s1.07-2.39,2.39-2.39,2.39,1.07,2.39,2.39-1.07,2.39-2.39,2.39Zm0-3.94c-.85,0-1.55.69-1.55,1.55s.69,1.55,1.55,1.55,1.55-.69,1.55-1.55-.69-1.55-1.55-1.55Z"/><rect class="e" x="144.24" y="76.67" width="5.21" height="1" transform="translate(-11.56 126.44) rotate(-45)"/><rect class="e" x="152.02" y="75" width="1" height="2.46" transform="translate(-9.22 130.2) rotate(-45.01)"/><rect class="e" x="155.36" y="72.5" width="9.7" height="1" transform="translate(-4.69 134.67) rotate(-45)"/><path class="d" d="m168.52,59.73c-11.51,1.23-22.98,2.61-34.5,3.7-1.24.08-2.23,1.09-2.22,2.28,0,.85.01,1.64.02,2.4.26.1.52.22.77.34v-1.54c0-1.22.97-2.19,2.19-2.24,10.96-1.18,21.8-2.87,32.76-4.05,1.22-.05,2.19.92,2.19,2.26v22.92c0,1.34-.97,2.3-2.19,2.3h-26.19c-.15.78-.35,1.53-.59,2.27,1.6.05,3.19.12,4.79.21v3.01s-4.92,4.05-4.92,4.05l20.99,2.03-4.92-4.05.09-4.36c3.81.21,7.62.36,11.43.29,1.18,0,2.12-.95,2.13-2.17.04-10.14.23-17.49.27-27.64,0-1.23-.93-2.1-2.1-2.01Z"/><path class="d" d="m260.09,120.47l-13.88-41.68c1.28-.69,2.16-2,2.22-3.54h1.37v-1.16h-3.09v-1.2h.93c1.23,0,2.28-.77,2.71-1.85h1.48v-2.32h-1.47c-.42-1.1-1.48-1.89-2.72-1.89h-6.63c-1.24,0-2.3.79-2.72,1.89h-1.69v2.32h1.7c.43,1.08,1.48,1.85,2.71,1.85h.91v1.2h-3.15v1.16h1.21c.01.33.06.64.15.94-.21.08-.42.19-.61.33l-7.52,5.91-6.04-7.04c-.23-.27-.51-.46-.8-.6-.12-.14-.25-.27-.38-.4.35.08.7.13,1.07.16,4,.29,7.33-2.43,7.62-6.42.02-.31.02-.62,0-.93l-13.89-1.07c-.06.3-.11.6-.13.92-.16,2.27.64,4.29,2.1,5.67-2.94-.71-6.04.84-7.17,3.73l-5.06,12.94c-.78,2-.43,4.17.73,5.81l-2.09,11.01-10.07,10.45c-1.2,1.24-1.16,3.24.08,4.43,1.24,1.2,3.24,1.16,4.43-.08l10.68-11.09c.17-.18.31-.38.44-.59.2-.32.35-.68.43-1.07l1.61-8.46,6.76,5.95-4.27,12.12c-.57,1.63.29,3.43,1.91,4,1.63.57,3.43-.29,4-1.91l5.12-14.52c.46-1.3-.01-2.7-1.05-3.51-.09-.1-.17-.2-.27-.29l-7.18-6.33c.27-.38.5-.8.68-1.26l2.16-5.51,1.16,3.07c.18.47.52.83.93,1.05.1.08.2.15.32.21l9.94,5.26-7.43,22.31c-.22.66.14,1.37.79,1.59.66.22,1.37-.14,1.59-.79l7.74-23.25c.26-.2.49-.46.66-.77h0c.3-.56.34-1.19.18-1.76l4.92-14.77,13.5,40.55c.22.66.93,1.01,1.59.79.66-.22,1.01-.93.79-1.59Zm-30.84-31.14l-1.85-4.91,2.36,2.75c.7.82,1.85,1.03,2.79.61.34-.07.67-.22.96-.44l7.92-6.23-4.15,12.47-8.03-4.25Z"/><path class="d" d="m233.32,66.54l.75.06c.49.04.92-.33.96-.82v-.13c.05-.49-.32-.92-.8-.96l-.34-.03c.01-.23,0-.46-.06-.68-.82-3.09-2.33-5.82-5.8-6.44.02-.51-.35-.95-.86-1-.53-.05-1.01.34-1.06.87v.03c-1.97.15-4.28,1.37-5.37,3.15-1.45,2.35-1.56,4.94-1.56,4.94l14.15,1.01s0,0,0,0Zm-10.09-5.65c-1.16,1.57-1.74,3.7-1.74,3.7l-1.31-.15s.27-1.7,1.98-3.9c1.7-2.19,3.53-2.19,3.53-2.19,0,0-1.09.67-2.47,2.54Z"/><path class="e" d="m292.8,135.16h-1.12l2.37-4.1,2.37,4.1h-1.12v11.61h-2.5v-11.61Zm3.72,12.25h-15.85c-.01.73-.08,1.45-.2,2.14h16.05c.37,0,.67-.3.67-.67v-.8c0-.37-.3-.67-.67-.67Zm-9.23-.64h2.5v-10.25h1.12l-2.37-4.1-2.37,4.1h1.12v10.25Zm-5.58,0h2.5v-7.42h1.12l-2.37-4.1-2.37,4.1h1.12v7.42Zm.89,17.92c-4.84-2.56-8.25-2.18-9.75-3.64,3.73-1.59,6.41-5.76,6.41-10.67,0-.38-.02-.76-.05-1.13h-19.37c-.03.37-.05.75-.05,1.13,0,5.08,2.85,9.37,6.78,10.83-1.23,1.36-7.93,1.56-10.68,4.4-3.54,3.66-3.18,7.31-3.18,7.31h34.52s.09-5.74-4.62-8.24Zm-22.66-16.65h19.06s0-.05.01-.08c.58-.19,1.01-.73,1.01-1.37,0-.73-.55-1.34-1.26-1.43-1.03-4.59-3.38-7.72-6.78-8.79l-.66,9.68h-.49l.16-9.94s-.06-.01-.09-.02c-.25-.73-.94-1.26-1.75-1.26h-.16c-.83,0-1.53.55-1.77,1.31-.03,0-.06.02-.09.02v9.89h-.37l-.81-9.57c-3.16,1.09-5.36,3.91-5.9,8.66h-.11c-.8,0-1.45.65-1.45,1.45s.65,1.45,1.45,1.45Zm-19.39-10.52l-1.15.05h-.01s0-.01,0-.01l-.18-.59h0s0-.02,0-.02l.99-.59c-.02-.14-.03-.27-.03-.41h0s0-.02,0-.02c0-.14,0-.27.01-.41l-1.02-.53h0s0-.02,0-.02l.14-.6h0s.01-.01.01-.01h1.15c.1-.27.24-.51.39-.73l-.62-.97h0s0-.02,0-.02l.43-.45h0s0,0,0,0l1,.57c.22-.17.45-.31.7-.43l-.05-1.15h0s.01-.01.01-.01l.59-.18h.01s0,0,0,0l.59.99c.14-.02.27-.03.41-.03h0s0,0,0,0h0s0,0,0,0c.14,0,.27,0,.41.01l.53-1.02h0s.01,0,.01,0l.6.14h.01s0,.01,0,.01v1.15c.27.1.51.24.73.39l.97-.62h0s0,0,0,0l.45.43h0s0,.02,0,.02l-.57,1c.17.22.31.45.43.7l1.15-.05h.01s0,.01,0,.01l.18.59h0s0,.02,0,.02l-.99.59c.02.14.03.27.03.41h0s0,.02,0,.02c0,.14,0,.27-.01.41l1.02.53h0s0,.02,0,.02l-.14.6h0s-.01.01-.01.01h-1.15c-.1.27-.24.51-.39.73l.62.97h0s0,.02,0,.02l-.43.45h0s0,0,0,0l-1-.57c-.22.17-.45.31-.7.43l.05,1.15h0s-.01.01-.01.01l-.59.18h-.01s0,0,0,0l-.59-.99c-.14.02-.27.03-.41.03h0s0,0,0,0c-.14,0-.27,0-.41-.01l-.53,1.02h0s-.01,0-.01,0l-.6-.14h-.01s0-.01,0-.01v-1.15c-.27-.1-.51-.24-.73-.39l-.97.62h0s0,0,0,0l-.45-.43h0s0-.02,0-.02l.57-1c-.17-.22-.31-.45-.43-.7Zm1.28-1.62c.03,1.23,1.06,2.21,2.3,2.17,1.23-.03,2.21-1.06,2.17-2.3-.03-1.23-1.06-2.21-2.3-2.17-1.23.03-2.21,1.06-2.17,2.3Zm4.66,8.96h0s0,.01,0,.01l-.05.41h0s0,0,0,0l-.77.09c-.03.09-.06.17-.09.26h0s0,.01,0,.01c-.03.08-.07.17-.12.25l.48.6h0s0,.01,0,.01l-.25.33h0s0,0,0,0l-.71-.3c-.13.13-.28.24-.43.34l.12.76h0s0,.01,0,.01l-.38.16h0s0,0,0,0l-.46-.62c-.18.04-.36.07-.54.08l-.28.72h0s0,0,0,0l-.41-.05h0s0,0,0,0l-.09-.77c-.09-.03-.17-.06-.26-.09h0s0,0,0,0c-.08-.03-.17-.07-.25-.12l-.6.48h0s0,0,0,0l-.33-.25h0s0-.01,0-.01l.3-.71c-.13-.13-.24-.28-.34-.43l-.76.12h0s0,0,0,0l-.16-.38h0s0-.01,0-.01l.62-.46c-.04-.18-.07-.36-.08-.54l-.72-.28h0s0-.01,0-.01l.05-.41h0s0,0,0,0l.77-.09c.03-.09.06-.17.09-.26h0s0-.01,0-.01c.03-.08.07-.17.12-.25l-.48-.6h0s0-.01,0-.01l.25-.33h0s0,0,0,0l.71.3c.13-.13.28-.24.43-.34l-.12-.76h0s0-.01,0-.01l.38-.16h0s0,0,0,0l.46.62c.18-.04.36-.07.54-.08l.28-.72h0s0,0,0,0l.41.05h0s0,0,0,0l.09.77c.09.03.17.06.26.09h0s0,0,0,0h0s0,0,0,0c.08.03.17.07.25.12l.6-.48h0s0,0,0,0l.33.25h0s0,.01,0,.01l-.3.71c.13.13.24.28.34.43l.76-.12h0s0,0,0,0l.16.38h0s0,.01,0,.01l-.62.46c.04.18.07.36.08.54l.72.28Zm-2.76-1.58c-.76-.31-1.64.06-1.95.82-.31.77.06,1.64.82,1.95.76.31,1.64-.06,1.95-.82.31-.77-.06-1.64-.82-1.95Zm14.25,4.77l-.26.22h-.01s-.01,0-.01,0l-1.31-.93c-.33.2-.67.37-1.03.49l-.1,1.61v.02s-.02,0-.02,0l-.85.16h-.02s0-.01,0-.01l-.67-1.46c-.19,0-.38,0-.57-.01h-.01s-.01,0-.01,0c-.19-.01-.38-.04-.57-.07l-.89,1.34h0s-.01,0-.01,0l-.81-.29h-.01s0-.02,0-.02l.15-1.6c-.34-.18-.65-.4-.94-.65l-1.44.72h-.01s-.01,0-.01,0l-.56-.66h-.01s0-.02,0-.02l.93-1.31c-.2-.32-.37-.67-.49-1.03l-1.61-.1h-.02s0-.02,0-.02l-.16-.85v-.02s.01,0,.01,0l1.46-.67c0-.19,0-.38.01-.57h0s0-.03,0-.03c.01-.19.04-.38.07-.57l-1.34-.89h-.01s0-.02,0-.02l.29-.81h0s.02-.01.02-.01l1.6.15c.18-.34.4-.65.65-.94l-.72-1.44h0s.01-.02.01-.02l.66-.56h.01s.01,0,.01,0l1.31.93c.33-.2.67-.37,1.03-.49l.1-1.61v-.02s.02,0,.02,0l.85-.16h.02s0,.01,0,.01l.67,1.46c.19,0,.38,0,.57.01h.01s0,0,0,0h0s0,0,0,0c.19.01.38.04.57.07l.89-1.34h0s.01,0,.01,0l.81.29h.01s0,.02,0,.02l-.15,1.6c.34.18.65.4.94.65l1.44-.72h.01s.01,0,.01,0l.56.66h.01s0,.02,0,.02l-.93,1.31c.2.33.37.67.49,1.03l.8.05c-.76,1.44-1.26,3.06-1.44,4.79-.12.17-.22.35-.35.51l.29.58c0,.11-.02.22-.02.33,0,.3.02.6.04.9Zm-1.33-5.1c.14-1.72-1.15-3.22-2.87-3.36-1.72-.14-3.22,1.15-3.36,2.87-.14,1.72,1.15,3.22,2.87,3.36,1.72.14,3.22-1.15,3.36-2.87Zm-15.15,18.84l17.1-1.72c-.18-.39-.35-.78-.51-1.18l-2.95-2.39v-2.03c.59-.01,1.19-.02,1.79-.03-.14-.92-.22-1.86-.24-2.83-6.66.11-12.28.29-20.01.33-1.02,0-1.82-.8-1.82-1.84v-19.75c0-1.04.86-1.79,1.93-1.71,9.31.79,18.58,2.06,27.87,3.09,1.01.1,1.8.99,1.79,1.94,0,.25,0,.47-.01.71.23-.06.46-.11.69-.15,0-.31.01-.62.02-.95.01-1.13-.91-2.2-2.04-2.33-9.74-1.17-19.47-2.51-29.25-3.35-1.12-.09-2.03.81-2.03,2.02v23.05c0,1.21.97,2.17,2.13,2.17,3.14,0,6.24-.06,9.33-.13v3.36l-3.77,3.73Zm61.24-34.19c-9.77.84-19.51,2.18-29.25,3.35-1.13.13-2.06,1.2-2.04,2.33,0,.46.01.88.02,1.3.23.08.46.15.69.25,0-.37-.02-.76-.02-1.16-.01-.96.78-1.84,1.79-1.94,9.29-1.03,18.55-2.3,27.87-3.09,1.07-.08,1.93.67,1.93,1.71v19.75c0,1.04-.81,1.85-1.82,1.84-8.23-.04-14.08-.24-21.33-.35-.03.97-.1,1.91-.24,2.83,1.04.02,2.08.03,3.11.05v2.03l-4.3,3.49,17.95,1.81-3.77-3.73v-3.36c3.09.07,6.19.13,9.33.13,1.16,0,2.13-.97,2.13-2.17v-23.05c0-1.21-.91-2.11-2.03-2.02Z"/><path class="d" d="m154.65,258.98v12.05c0,2.8-1.73,5.21-4.17,6.23-.4.26-.86.45-1.37.52l-17.49,2.45-2.07,14.8c-.27,1.95-2.09,3.33-4.05,3.05l-.33-.05c-1.95-.27-3.33-2.09-3.05-4.05l2.36-16.87c.01-.09.05-.18.06-.26.04-1.63,1.26-3.05,2.92-3.29l13.72-1.93c-.02-.2-.03-.41-.03-.62v-9.54l-3.92,2.71c-.42.29-.9.42-1.38.41-.4.14-.85.18-1.29.08l-9.92-2.27c-1.28-.29-2.08-1.57-1.79-2.85.29-1.28,1.57-2.08,2.85-1.79l9.35,2.14,7.79-5.38c1.24-1.4,3.04-2.3,5.05-2.3h0c3.71,0,6.74,3.03,6.74,6.74Zm6.77-8.61c-2.41-.04-2.92,1.06-3.43,3.21,0,0-1.06,4.54-2.27,9.59v8.93c0,2.8-1.73,5.21-4.17,6.23-.4.26-.86.45-1.37.52l-17.49,2.45-.59,4.25,12.4-.13v5.82c-5.09.24-9.01,1.67-9.01,3.41,0,.09.02.17.04.26h20.96c.02-.09.04-.17.04-.26,0-1.76-4.01-3.21-9.2-3.42v-5.84l6.52-.07s2.51-.22,4.54-3.44c2.04-3.22,5.51-29.04,5.51-29.04,0,0-.07-2.46-2.48-2.5Zm-32.6,14.87h-14.72l-3.07-13.35c-.15-.66-.81-1.07-1.47-.92l-.17.04c-.66.15-1.07.81-.92,1.47l3.23,14.05c.07.33.28.59.54.76.16.78.85,1.38,1.68,1.38h14.91c.94,0,1.71-.77,1.71-1.71s-.77-1.71-1.71-1.71Zm8.82-19.91c.63,3.36,3.58,5.91,7.13,5.91,4.01,0,7.26-3.25,7.26-7.26,0-.83-.15-1.62-.4-2.36-4.75,1.27-11.47,3.06-13.99,3.71Zm13.79-4.34l-14,3.69s-1.37.69-1.66-.47c-.29-1.16,1.3-1.5,1.3-1.5,0,0-.13-6.53,4.15-7.58.02,0,.03,0,.05-.01.15-.59.44-1.36.74-1.44.64-.17.93-.4,1.85.71.07.09.11.17.13.24,2.46-.24,3.85.31,4.76,1.38,1.2,1.42,1.35,1.41,1.77,2.42s.92,2.58.92,2.58Zm-1.92,0l1.22-.17s-.93-2.69-2.73-4.31c-1.43-1.29-3.49-1.24-3.49-1.24l.24.26s.16-.14,1.6.77c1.29.81,3.17,4.7,3.17,4.7Z"/><path class="e" d="m277.44,254.36c0-.41-.04-.81-.1-1.21l3.01-1.03-.98-2.89-3,1.02c-.6-1.08-1.44-2-2.44-2.72l1.34-2.88-2.77-1.29-1.34,2.88c-.67-.17-1.37-.27-2.09-.27-.46,0-.91.05-1.36.12l-1.08-2.99-2.87,1.04,1.08,2.99c-1.02.6-1.9,1.4-2.58,2.36l-2.88-1.34-1.29,2.77,2.88,1.34c-.17.67-.27,1.37-.27,2.1,0,.41.04.81.1,1.21l-3.01,1.03.98,2.89,3-1.02c.6,1.08,1.44,2,2.44,2.72l-1.34,2.88,2.77,1.29,1.34-2.88c.67.17,1.37.27,2.09.27.46,0,.91-.05,1.36-.12l1.08,2.99,2.87-1.04-1.08-2.99c1.02-.6,1.9-1.4,2.58-2.36l2.88,1.34,1.29-2.77-2.88-1.34c.17-.67.27-1.37.27-2.1Zm-8.37,3.72c-2.05,0-3.71-1.67-3.71-3.72s1.66-3.72,3.71-3.72,3.71,1.67,3.71,3.72-1.66,3.72-3.71,3.72Zm20.99-13.33c0-.27-.03-.53-.06-.79l1.96-.67-.64-1.89-1.95.67c-.39-.7-.94-1.3-1.59-1.77l.87-1.88-1.8-.84-.87,1.88c-.44-.11-.89-.18-1.36-.18-.3,0-.6.03-.88.08l-.7-1.95-1.87.68.7,1.95c-.66.39-1.24.91-1.68,1.54l-1.87-.88-.84,1.81,1.87.88c-.11.44-.18.89-.18,1.37,0,.27.03.53.06.79l-1.96.67.64,1.89,1.95-.67c.39.7.94,1.3,1.59,1.77l-.87,1.88,1.8.84.87-1.88c.44.11.89.18,1.36.18.3,0,.6-.03.88-.08l.7,1.95,1.87-.68-.7-1.95c.66-.39,1.24-.91,1.68-1.54l1.87.88.84-1.81-1.87-.88c.11-.44.18-.89.18-1.37Zm-5.45,2.42c-1.33,0-2.42-1.08-2.42-2.42s1.08-2.42,2.42-2.42,2.42,1.08,2.42,2.42-1.08,2.42-2.42,2.42Zm-19.52-47.98c0-.8.65-1.45,1.45-1.45h.11c.55-4.77,2.75-7.61,5.92-8.7l.81,9.62h.37v-9.94s.06-.02.09-.02c.24-.76.94-1.31,1.77-1.31h.16c.82,0,1.51.54,1.76,1.27.03,0,.06.01.09.02l-.16,9.99h.5l.66-9.73c3.41,1.07,5.77,4.22,6.8,8.83.71.09,1.27.7,1.27,1.44,0,.64-.43,1.19-1.01,1.38,0,.03,0,.05-.01.08h-19.12c-.8,0-1.45-.65-1.45-1.45Zm30.69,30.61c-.04-.11-.08-.22-.13-.33l-6.72-12.69c-.17-.33-.41-.6-.67-.84-.06-.13-.19-.25-.45-.35-.08-.03-.16-.06-.24-.09-.14-.07-.29-.13-.44-.17-4.54-1.75-6.51-1.98-6.51-1.98,3.75-1.6,5.3-5.43,5.3-10.36,0-.38-.02-.76-.05-1.13h-19.43c-.03.37-.05.75-.05,1.13,0,5.1,1.55,8.68,5.49,10.15-.8.52-3.5.92-6.09,1.87-.35.05-.7.17-1.03.35l-.6.35c-.41.21-.81.43-1.19.69l-10.35,5.99c-.27.12-.5.29-.72.48-.04.03-.07.07-.11.1-.08.08-.16.17-.24.26-.07.09-.14.18-.2.28-.03.04-.05.08-.08.13-.45.78-.54,1.73-.19,2.59l2.8,10.96c-1,.07-1.71.12-1.71.12,0,0-1.76.22-1.9,1.44s.71,1.72,2.37,1.68c.48-.01,1.22-.09,2.08-.18.59,1.27,2.02,1.98,3.41,1.63l.51-.13c1.06-.27,1.83-1.1,2.11-2.09.23,0,.45-.01.65,0,3.7.07,6.1,2.07,6.1,2.07l1.48-6.83,4.28.74s-1.22-3.4-4.28-3.2c-3.06.2-4.51,2.4-5.15,2.72-.52.26-1.85,1.13-3.43,1.5l-2.51-9.85,2.39-1.38c.77-.19,1.96-.49,3.42-.86v9.24c.75-.58,1.59-1.08,2.43-1.48,1.08-.51,2.48-.92,3.65-.79,2.01.23,4.7,2.39,4.39,4.72-.05.34-.2.48-.2.48,0,0-2.87-.44-4.09-.67l-.46,1.66c.62.18,4.01,1.2,4.01,1.2,0,0-.21.79-.53,1.31s-.39.58-.97.84h5.1s.37-.79.37-.79l.42-.91.91.42,1.17.55c.23-.25.48-.48.75-.69l-.44-1.22-.34-.95.94-.34,1.87-.68.94-.34.34.95.44,1.21c.07,0,.14,0,.21,0,.26,0,.52.02.78.05l.54-1.17.42-.91.91.42.74.35.17-7.87,1.77,3.35-.91,5.01h.03s.91.44.91.44l-.42.91-.55,1.17c.28.26.53.54.76.85l1.22-.42.95-.32.32.95.64,1.89.32.95s1.23-.12,1.51-1.73l1.79-9.89c.16-.94-.15-1.85-.75-2.51Zm-43.3,8.91c0,.28-.03.6-.31.6h-.28c-.28,0-.53.04-.53-.24l.03-.39c.08-.28.1-.5.37-.5h.55c.28,0,.16.25.16.52Zm13.17-.91l.46-1.59c.16-.54.72-.85,1.26-.7.54.16.85.72.69,1.26l-.46,1.59c-.16.54-.72.85-1.26.7-.54-.16-.85-.72-.69-1.26Zm4.67,3.11c-1.39.4-2.22.28-2.22.28l.64-2.72,3.68,1.12s-.7.92-2.1,1.32Z"/><path class="e" d="m196.1,253.77c0-.9.74-1.64,1.64-1.64h.12c.62-5.39,3.12-8.59,6.7-9.83l.91,10.87h.42v-11.23s.07-.02.11-.02c.27-.86,1.06-1.49,2.01-1.49h.18c.92,0,1.71.61,1.99,1.44.03,0,.06.02.1.02l-.18,11.28h.56l.75-11c3.86,1.21,6.53,4.77,7.69,9.98.81.1,1.44.79,1.44,1.62,0,.73-.43,1.21-1.09,1.43,0,.03-21.66.09-21.66.09-.9,0-1.7-.61-1.7-1.51Zm61.53,32.02h-29.1l.14,1.63h-39.9l.55-6.59c.23-8.53,11.98-10.8,13.52-11,1.54-.2,1.56-1.09,1.56-1.09-3.95-1.97-6.84-5.33-6.84-10.67,0-.43.02-1.88.06-2.3h22c.02.27.04.96.05,1.54.12-.02.24-.04.36-.04h29.19c1.2,0,2.18.97,2.18,2.18v19.48s6.23,3.97,6.23,3.97v2.9Zm-39.77-21.45c-1.28,1.91-3.13,3.35-5.24,4.39,0,0,.09.33,1.13.85.35.17,2.02.53,4.11,1.24v-6.48Zm31.71-5.08h-29.94c-.02.19-.04.38-.06.56v11.63c2.89,1.18,6.08,3.02,7.62,5.91h22.39v-18.11Zm-26.4,9.77l2.03-.62c-.09-.81,0-1.64.26-2.42l-1.85-1.03,1-1.78,1.85,1.04c.17-.21.35-.4.56-.59.36-.32.75-.58,1.16-.8l-.62-2.03,1.95-.59.62,2.03c.78-.09,1.57,0,2.32.23l1-1.87,1.8.96-1,1.87c.23.19.46.39.67.62.32.36.58.75.8,1.16l2.03-.62.59,1.95-2.03.62c.09.81,0,1.64-.26,2.42l1.85,1.03-1,1.78-1.85-1.04c-.17.21-.35.4-.56.59-.36.32-.75.58-1.16.8l.62,2.03-1.95.59-.62-2.03c-.78.09-1.57,0-2.32-.23l-1,1.87-1.8-.96,1-1.87c-.23-.19-.46-.39-.67-.62-.32-.36-.58-.75-.8-1.16l-2.03.62-.59-1.95Zm5.74.41c.92,1.02,2.48,1.1,3.5.19,1.02-.92,1.1-2.48.19-3.5s-2.48-1.1-3.5-.19c-1.02.92-1.1,2.48-.19,3.5Zm8.89-.07l.65-1.16,1.21.67c.11-.13.23-.26.36-.38.23-.21.49-.38.76-.52l-.4-1.32,1.27-.39.4,1.32c.51-.06,1.02,0,1.51.15l.65-1.22,1.17.63-.65,1.22c.15.12.3.25.43.4.21.23.38.49.52.76l1.32-.4.39,1.27-1.32.4c.06.53,0,1.07-.17,1.58l1.2.67-.65,1.16-1.21-.67c-.11.13-.23.26-.36.38-.23.21-.49.38-.76.52l.4,1.32-1.27.39-.4-1.32c-.51.06-1.02,0-1.51-.15l-.65,1.22-1.17-.63.65-1.22c-.15-.12-.3-.25-.43-.4-.21-.23-.38-.49-.52-.76l-1.32.4-.39-1.27,1.32-.4c-.06-.53,0-1.07.17-1.58l-1.2-.67Zm3.45,2.92c.6.66,1.62.72,2.28.12.66-.6.72-1.62.12-2.28-.6-.66-1.62-.72-2.28-.12-.66.6-.72,1.62-.12,2.28Z"/><path class="h" d="m180.97,220.88c-22.73,0-41.23-18.5-41.23-41.23s18.5-41.23,41.23-41.23,41.23,18.5,41.23,41.23-18.5,41.23-41.23,41.23Z"/><path class="e" d="m180.97,138.64c22.61,0,41.01,18.4,41.01,41.01s-18.4,41.01-41.01,41.01-41.01-18.4-41.01-41.01,18.4-41.01,41.01-41.01m0-.44c-22.86,0-41.45,18.6-41.45,41.45s18.59,41.45,41.45,41.45,41.45-18.6,41.45-41.45-18.6-41.45-41.45-41.45h0Z"/><path class="g" d="m180.97,219.69c-22.06,0-39.95-17.89-39.95-39.95s17.89-39.95,39.95-39.95c.2,0,.4.01.61.02l.09-.26.14.27c21.68.45,39.11,18.15,39.11,39.93s-17.89,39.95-39.95,39.95Z"/><path class="f" d="m181.67,139.53l-.09.26c.08,0,.15,0,.23,0l-.14-.27Z"/><path class="h" d="m163.16,213.29c-.06.17-.06.25,0,.28.06.03.12-.02.19-.08l4.99-4.33.23,6.66c0,.12.02.17.07.19.05.02.11-.03.17-.11l3.15-5.4c.18-.32.36-.64.67-.57.14.03.2.06.27.09.04.02.09.02.11,0,.03-.06-.03-.11-.11-.14-.23-.1-.66-.26-.74-.3-.07-.03-.48-.24-.8-.39-.1-.05-.16-.05-.19,0-.01.03.02.06.05.07.05.02.18.09.31.19.12.08.16.24.11.37-.07.15-.14.3-.21.44l-2.15,3.88-.03-.02c0-.28-.04-2.8-.04-2.99,0-.11-.08-1.95-.12-2.47-.03-.39-.03-.49-.09-.52-.08-.04-.14.03-.49.33l-4.15,3.58h-.03s1.58-4.69,1.58-4.69c.05-.16.13-.31.17-.3.05.01.07,0,.09-.03.02-.04-.01-.09-.21-.19-.31-.17-1.24-.61-1.43-.7-.1-.05-.19-.05-.22,0-.02.03,0,.05.05.07.09.04.31.14.53.33.32.29.16.8.06,1.13l-1.8,5.6h0Z"/><path class="h" d="m161.89,203.87c-.37-.27-.84-.55-1.14-.63-.14-.03-.16-.03-.27.06-.2.16-.64.61-.67.65-.03.05-.05.1-.02.12.03.03.06.01.12-.04.09-.09.36-.29.57-.33.41-.07.79.13,1.22.44,1.25.91,1.36,2.55.55,3.66-.43.59-.91,1.04-1.63,1.14-.35.05-.87.01-1.65-.55-.51-.37-.85-.86-.92-1.18-.06-.24.02-.54.19-.77.06-.08.08-.13.04-.16-.03-.03-.07,0-.14.08-.07.08-.3.4-.45.59-.16.2-.23.26-.27.3-.03.03-.03.07.03.12.18.15.34.32.53.52.25.26.56.51.79.68.9.65,1.62.76,2.23.67.89-.14,1.52-.73,1.81-1.12.4-.55.74-1.32.55-2.23-.16-.75-.59-1.39-1.46-2.02h0Z"/><path class="h" d="m154.58,205.35c.07-.45.29-2.05.5-3.66.18-1.47.37-3.42.38-3.56.06-.71.07-.87.02-.92-.04-.05-.09-.04-.57.37l-4.29,3.57c-.44.37-.62.47-.88.27-.1-.07-.14-.12-.17-.16-.04-.05-.09-.06-.12-.04-.04.04,0,.09.06.17.25.3.47.52.54.6.07.08.34.45.62.78.07.09.13.14.17.1.03-.02.05-.05,0-.1-.05-.06-.18-.23-.26-.39-.13-.27-.01-.46.45-.87l3.64-3.19c-.05.44-.27,1.98-.44,3.35-.26,2.13-.52,4.21-.56,4.42-.01.13-.07.39-.02.45.05.06.15.01.43-.23l4.19-3.5c.66-.56.91-.7,1.11-.56.13.08.25.2.3.26.03.04.06.05.09.02.05-.04.02-.09-.04-.17-.28-.33-.55-.62-.61-.68-.05-.07-.28-.38-.63-.79-.07-.09-.12-.12-.17-.08-.03.02-.03.06,0,.1.06.07.18.23.26.4.11.25-.02.48-.61.99l-3.42,3.03h0Z"/><path class="h" d="m151.76,196.33c.82-.41,1.49-.76,1.86-.9.26-.09.47-.14.59,0,.06.07.12.16.16.24.03.05.06.05.09.04.05-.03.05-.08,0-.17-.13-.25-.43-.78-.45-.82-.13-.25-.36-.84-1.02-2.12-.17-.33-.2-.4-.45-.35-.2.05-.81.27-.88.31-.06.03-.13.06-.1.12.02.04.06.04.17.01.38-.12.6-.1.81.07.21.17.4.55.51.77.42.83.38,1.02-.19,1.34-.17.1-1.16.59-1.45.74l-.75.38s-.07.01-.09-.03c-.07-.14-.48-.99-.58-1.24-.13-.35-.03-.5.07-.59.09-.09.18-.13.26-.18.04-.02.07-.06.05-.1-.03-.06-.12-.01-.19.02-.06.03-.38.17-.56.24-.29.12-.46.15-.51.18-.05.03-.06.05-.05.08.02.03.08.05.18.07.12.03.2.14.32.34.12.19.65,1.23.7,1.34.02.04,0,.06-.06.09l-2.34,1.19c-.06.03-.09.03-.11,0-.05-.09-.51-1.02-.57-1.18-.18-.48-.12-.62-.02-.75.08-.09.22-.18.28-.21.07-.03.1-.07.08-.12-.02-.03-.08-.03-.12-.01-.11.04-.49.21-.58.24-.25.1-.37.11-.43.13-.04.02-.07.05-.06.07.02.04.07.06.1.1.05.06.14.19.23.34.11.19.97,1.88,1,1.94.02.04.27.59.46.97.05.09.09.13.14.1.03-.02.03-.06.02-.09-.04-.08-.1-.22-.12-.3-.08-.31.02-.45.3-.61.26-.16.5-.28,1.83-.95l1.49-.76h0Z"/><path class="h" d="m149.21,190.63c.88-.25,1.6-.46,2-.52.28-.04.49-.05.58.12.04.08.09.18.12.26.02.05.05.07.08.06.05-.02.06-.07.03-.17-.08-.27-.27-.84-.28-.89-.08-.27-.2-.9-.59-2.28-.1-.36-.12-.43-.38-.43-.21,0-.85.12-.92.14-.06.02-.14.04-.12.09.01.05.05.05.16.04.39-.04.61.01.78.22.17.21.28.61.35.85.26.9.18,1.07-.45,1.28-.19.06-1.25.36-1.57.45l-.81.23s-.07,0-.08-.05c-.04-.15-.29-1.07-.33-1.32-.07-.37.07-.49.18-.57.11-.07.2-.1.29-.12.05-.01.08-.04.06-.09-.02-.06-.12-.03-.19-.01-.06.02-.41.1-.6.13-.31.06-.48.06-.53.07-.05.02-.07.04-.06.07.01.04.07.06.16.1.12.06.17.18.25.39.08.21.4,1.33.44,1.45.01.05-.01.06-.08.08l-2.53.72c-.06.02-.1,0-.11-.03-.03-.1-.31-1.1-.33-1.26-.09-.51,0-.63.12-.74.1-.08.25-.13.31-.15.07-.02.11-.05.1-.11-.01-.04-.07-.04-.12-.04-.12.01-.52.11-.62.13-.26.05-.39.03-.45.05-.05.01-.08.03-.07.06.01.05.06.07.08.12.04.07.1.21.16.38.07.21.59,2.03.61,2.09.01.05.15.63.27,1.04.03.1.06.14.12.13.04-.01.04-.05.03-.09-.02-.08-.06-.24-.06-.32-.02-.32.1-.44.41-.54.29-.1.54-.18,1.97-.58l1.61-.46h0Z"/><path class="h" d="m150.61,183.54c-.06-.51-.24-1.01-.57-1.38-.54-.6-1.28-.66-1.67-.61-.76.09-1.31.43-2.05,1.65l-.18.29c-.62.98-.91,1.28-1.45,1.35-.69.09-1.16-.38-1.24-1.03-.11-.87.26-1.17.36-1.24.1-.07.35-.16.46-.18.07-.02.12-.03.11-.09,0-.05-.07-.06-.23-.04-.64.08-.96.08-1.01.09-.05,0-.06.03-.05.1s0,.15,0,.34c-.03.24-.03.52.01.89.15,1.2.93,1.87,1.94,1.75.64-.08,1.2-.38,1.9-1.48l.3-.47c.57-.9.92-1.22,1.57-1.3.61-.07,1.31.29,1.42,1.2.08.63-.11,1.29-.79,1.52-.13.04-.26.06-.35.07-.08,0-.1.02-.1.08,0,.05.06.06.16.06.15,0,.54-.02,1.01-.08.26-.03.29-.05.34-.19.14-.41.15-.85.1-1.3h0Z"/><path class="h" d="m147.46,179.09c.91.06,1.66.12,2.06.19.27.06.48.12.5.31.01.09.02.2.02.29,0,.06.02.08.05.08.06,0,.08-.04.09-.15.02-.28.03-.89.04-.93.02-.28.12-.91.22-2.34.03-.37.03-.45-.21-.53-.2-.06-.84-.18-.91-.19-.07,0-.14,0-.15.05,0,.05.03.07.14.1.38.09.57.22.65.48.09.26.06.67.04.92-.06.93-.2,1.07-.86,1.05-.2,0-1.3-.09-1.63-.11l-.84-.06s-.07-.02-.06-.07c.01-.16.1-1.1.14-1.36.06-.37.23-.44.37-.47.13-.03.22-.02.32-.02.05,0,.09-.01.09-.06,0-.07-.1-.07-.18-.08-.07,0-.42-.05-.61-.08-.31-.05-.47-.11-.53-.11-.06,0-.08.01-.08.04,0,.04.04.08.11.15.09.09.1.23.1.46,0,.22-.08,1.39-.09,1.51,0,.05-.03.05-.1.05l-2.62-.18c-.07,0-.09-.03-.09-.06,0-.1.09-1.14.12-1.3.09-.51.21-.6.37-.65.12-.04.28-.04.35-.03.08,0,.13-.01.13-.07,0-.04-.05-.06-.1-.07-.11-.03-.53-.08-.62-.09-.26-.05-.37-.1-.44-.11-.05,0-.09,0-.09.03,0,.05.03.09.04.14.01.08.02.23.02.41,0,.22-.14,2.11-.14,2.18,0,.05-.07.64-.1,1.07,0,.1,0,.15.07.16.04,0,.06-.03.06-.07,0-.09.03-.25.05-.32.09-.31.25-.37.57-.37.31,0,.57.02,2.05.12l1.67.12h0Z"/><path class="h" d="m152.28,169.33c.18-.48.26-1,.14-1.49-.2-.78-.82-1.18-1.19-1.32-.71-.27-1.36-.24-2.59.5l-.29.17c-1.01.57-1.4.71-1.91.51-.65-.25-.85-.88-.61-1.49.31-.82.78-.91.9-.93.12-.02.38.02.49.05.07.02.12.03.14-.03.02-.04-.04-.09-.18-.14-.6-.23-.88-.38-.93-.4-.04-.02-.07,0-.1.06-.03.07-.06.14-.16.29-.14.2-.27.45-.41.79-.43,1.13-.06,2.09.89,2.46.61.23,1.24.23,2.37-.41l.48-.27c.92-.52,1.38-.64,1.99-.41.57.22,1.02.87.69,1.73-.23.6-.7,1.09-1.41.97-.13-.02-.26-.07-.34-.1-.07-.03-.1-.03-.12.02-.02.04.02.08.12.13.14.06.48.24.93.41.24.09.28.1.39,0,.32-.3.54-.68.7-1.1h0Z"/><path class="h" d="m148.86,160.54l.63-1.02c.49-.77.79-.85,1.05-.73l.09.05c.12.06.15.06.18.02.02-.03,0-.08-.07-.12-.09-.05-.64-.42-.88-.56-.05-.03-.1-.06-.12-.02-.04.07-.09.33-.4.86l-1.84,3.06c-.06.1-.26.4-.43.62-.15.21-.28.24-.31.3-.02.03.07.13.11.18.06.06.66.64.74.69.05.03.08.03.1,0,.02-.03.02-.07-.03-.13-.04-.06-.09-.12-.17-.29-.12-.25-.06-.48.24-.99l.71-1.22,3.45,2.08c.78.47,1.43.86,1.75,1.11.22.17.37.32.31.51-.03.08-.07.19-.11.26-.03.05-.01.08,0,.09.05.03.09,0,.14-.09.15-.24.43-.77.46-.82s.36-.54.63-.99c.05-.09.05-.15.01-.17-.02-.01-.06-.01-.09.04-.04.07-.17.24-.25.35-.18.22-.39.17-.64.05-.37-.17-1.01-.55-1.8-1.02l-3.45-2.08h0Z"/><path class="c" d="m155.56,160.65c.24.45.38.83.13,1.19-.04.06-.13.17-.17.22-.03.04-.04.08-.01.1.04.04.09,0,.18-.08.3-.33.63-.74.7-.82.07-.08.37-.36.52-.53.06-.06.08-.12.04-.16-.03-.03-.06-.02-.11.03l-.06.07c-.11.12-.31.21-.45.08-.13-.11-.27-.3-.39-.53l-.87-1.55s-.02-.09,0-.12l1.37-1.52s.06-.04.1-.03l2.33.91c.15.06.18.16.15.21-.02.03-.02.07,0,.09.04.04.11-.04.24-.17.45-.48.92-.99,1.02-1.1.07-.08.11-.15.07-.19-.04-.03-.07-.01-.11.03-.06.07-.17.17-.3.24-.18.11-.47.21-1.33-.1-1.47-.54-5.39-2.06-5.76-2.19-.3-.11-.36-.12-.39-.07-.04.04-.02.11.14.4l2.95,5.57h0Zm-.67-2.4s-.05.02-.07-.02l-1.35-2.34c-.07-.13-.04-.17.1-.11l2.52,1.05s.06.04.02.07l-1.22,1.35h0Z"/><path class="h" d="m158.55,149.82l.96-.72c.73-.55,1.04-.51,1.25-.31l.07.08c.09.1.12.11.16.08.03-.02.03-.07-.02-.14-.06-.08-.45-.62-.62-.84-.03-.04-.07-.09-.11-.06-.06.05-.2.28-.68.66l-2.82,2.2c-.09.07-.39.28-.62.43-.21.14-.35.13-.4.17-.03.02.02.14.04.2.03.07.39.83.44.91.04.04.07.06.09.04.03-.02.04-.06.02-.13-.02-.07-.04-.14-.05-.33-.02-.27.12-.47.58-.84l1.1-.88,2.48,3.18c.56.72,1.03,1.31,1.24,1.66.14.24.23.44.11.58-.06.07-.13.15-.2.21-.05.03-.04.07-.02.09.04.05.08.03.17-.03.23-.18.68-.57.72-.6.04-.03.53-.38.94-.7.08-.06.1-.12.07-.15-.02-.02-.05-.03-.1,0-.07.05-.24.17-.36.23-.25.15-.42.02-.62-.18-.28-.29-.75-.88-1.31-1.6l-2.48-3.18h0Z"/><path class="h" d="m165,150.49c.42.82.76,1.49.9,1.86.09.26.14.47,0,.59-.07.06-.16.13-.24.16-.05.03-.06.06-.04.09.03.05.08.05.17,0,.25-.13.78-.43.82-.45.25-.13.84-.36,2.12-1.02.33-.17.4-.2.35-.45-.05-.2-.27-.81-.31-.88-.03-.06-.06-.13-.12-.1-.04.02-.04.06-.01.17.12.38.1.6-.07.81-.17.21-.55.4-.77.51-.83.42-1.02.38-1.34-.19-.1-.17-.59-1.16-.74-1.45l-.38-.75s-.01-.07.03-.09c.14-.07.99-.49,1.24-.58.35-.13.5-.03.59.07.09.09.13.18.18.26.02.04.06.07.1.05.06-.03.01-.12-.02-.19-.03-.06-.17-.38-.24-.56-.12-.29-.15-.46-.17-.51-.03-.05-.05-.06-.08-.05-.03.02-.05.08-.07.18-.03.12-.14.2-.34.32-.19.12-1.23.65-1.34.71-.04.02-.06,0-.09-.06l-1.19-2.34c-.03-.06-.03-.09,0-.11.09-.05,1.02-.51,1.18-.57.48-.18.62-.12.75-.02.09.08.18.22.21.28.03.07.07.1.12.08.03-.02.02-.08.01-.12-.03-.11-.21-.49-.24-.58-.1-.25-.1-.37-.14-.43-.02-.04-.05-.07-.07-.06-.04.02-.06.07-.1.1-.06.05-.19.14-.34.23-.19.11-1.88.97-1.94,1-.04.02-.59.27-.97.46-.09.05-.13.09-.1.14.02.03.06.03.09.02.08-.04.23-.1.3-.12.31-.08.45.02.61.3.16.26.28.5.95,1.83l.76,1.49h0Z"/><path class="h" d="m186.84,146.64c-.36,1.34-.18,2.08.15,2.64.49.79,1.41,1.08,1.72,1.16.54.15,1.26.24,2.08-.17.91-.46,1.32-1.53,1.58-2.52l.26-.99c.38-1.44.45-1.69.55-1.98.11-.32.22-.45.48-.43.12,0,.17.02.24.03.04,0,.08,0,.09-.04.01-.05-.03-.09-.13-.11-.28-.07-.72-.16-.78-.18-.05-.01-.55-.18-.97-.29-.1-.03-.15-.02-.17.03-.01.04.02.06.06.07.08.02.24.07.31.11.29.15.32.31.26.63-.06.3-.13.56-.51,1.99l-.31,1.15c-.25.95-.57,1.7-1.14,2.11-.44.31-1.06.43-1.62.28-.52-.14-.92-.33-1.25-.88-.29-.48-.44-1.13-.08-2.46l.35-1.29c.38-1.44.45-1.69.55-1.98.1-.32.22-.46.48-.43.12.01.17.02.24.03.04.01.08,0,.09-.04.01-.06-.03-.09-.13-.11-.28-.07-.83-.19-.92-.22-.08-.02-.64-.2-1.05-.31-.1-.03-.15-.02-.17.03-.01.04.02.06.06.07.08.02.24.07.3.11.29.15.32.31.26.63-.06.3-.13.56-.51,1.99l-.36,1.34h0Z"/><path class="h" d="m197.25,147.18c.08.45.39,2.03.72,3.62.31,1.45.76,3.36.8,3.49.17.69.22.84.28.88.06.03.1,0,.42-.54l2.89-4.78c.29-.49.43-.65.74-.55.11.03.17.07.21.09.06.03.11.03.12,0,.03-.05-.02-.09-.11-.15-.33-.2-.62-.34-.71-.39-.09-.05-.47-.31-.83-.53-.1-.06-.17-.09-.2-.04-.02.03-.03.06.03.1.06.04.25.16.37.28.21.22.16.43-.15.97l-2.4,4.2c-.1-.43-.39-1.96-.68-3.31-.45-2.1-.87-4.15-.91-4.36-.03-.13-.06-.39-.13-.43-.07-.04-.14.04-.34.35l-2.82,4.67c-.45.74-.63.96-.87.89-.15-.03-.3-.11-.36-.15-.04-.02-.08-.02-.1,0-.03.06,0,.09.09.14.37.22.73.4.8.45.07.04.38.27.85.54.1.06.16.07.19.02.02-.03,0-.06-.04-.09-.07-.04-.25-.16-.38-.29-.18-.2-.13-.46.25-1.14l2.24-3.98h0Z"/><path class="h" d="m205.18,154.6c1.03-1.07,1.22-1.26,1.44-1.47.24-.23.41-.29.63-.15.09.07.14.1.19.14.03.03.07.04.09.01.04-.04.02-.09-.06-.16-.21-.2-.66-.6-.69-.63-.03-.03-.45-.47-.67-.69-.08-.07-.12-.09-.16-.05-.03.03-.01.07.02.09.05.05.13.14.19.23.12.18.07.36-.14.61-.2.23-.38.42-1.42,1.49l-1.16,1.21c-.64.66-1.16,1.2-1.47,1.45-.22.17-.4.29-.56.18-.07-.05-.17-.11-.23-.17-.04-.04-.07-.03-.09-.01-.04.04-.02.09.06.16.21.2.66.59.69.63.03.03.45.47.82.83.07.07.13.09.16.05.02-.02.02-.05-.02-.09-.06-.06-.2-.22-.28-.33-.18-.23-.07-.42.1-.63.24-.32.77-.86,1.4-1.52l1.17-1.21h0Z"/><path class="h" d="m209.33,156.73c.2-.34.37-.61.46-.69.05-.04.12-.07.23-.02.08.04.2.17.26.26.04.05.07.06.11.03.04-.03,0-.11-.11-.24-.22-.29-.51-.61-.57-.68-.07-.09-.38-.54-.66-.9-.09-.12-.16-.19-.21-.15-.03.02-.04.06,0,.1.03.05.13.17.19.31.13.32.14.5-.16.99l-3.17,5.44c-.25.42-.32.54-.25.63.06.08.2.01.82-.13.5-.11,1.58-.41,3.03-.81,1.22-.34,2.42-.67,2.69-.75.67-.2.88-.18,1.03-.14.2.07.33.24.37.29.05.06.09.08.12.05.04-.03.02-.09-.05-.17-.17-.22-.45-.52-.48-.57-.07-.09-.32-.45-.55-.75-.09-.12-.15-.15-.19-.12-.04.03-.02.07.02.12.07.08.15.2.19.31.02.1-.04.19-.1.23-.07.05-.2.1-.34.16-.67.26-4.08,1.3-5.42,1.65l2.72-4.44h0Z"/><path class="h" d="m210.79,165c-.83.39-1.51.7-1.89.83-.27.08-.48.13-.59-.03-.05-.07-.12-.16-.16-.24-.02-.05-.06-.06-.08-.04-.05.02-.05.07,0,.17.12.26.4.79.42.83.12.25.33.85.94,2.16.16.34.19.41.44.36.2-.04.82-.25.89-.28.06-.03.13-.06.1-.11-.02-.04-.06-.04-.17-.02-.38.1-.6.08-.8-.1-.2-.18-.38-.56-.48-.78-.4-.85-.34-1.03.24-1.33.18-.09,1.18-.55,1.48-.69l.76-.35s.07-.01.09.03c.07.15.45,1.01.53,1.25.12.35.01.5-.09.59-.1.09-.18.13-.27.17-.04.02-.07.05-.05.1.03.06.12.02.19-.02.06-.03.39-.16.57-.22.3-.11.46-.13.52-.16.05-.02.06-.05.05-.08-.02-.03-.08-.05-.17-.08-.12-.04-.2-.15-.31-.35-.11-.19-.61-1.25-.66-1.37-.02-.04,0-.06.06-.09l2.38-1.11c.06-.03.09-.02.11.01.04.1.47,1.04.53,1.2.16.49.1.62,0,.75-.08.09-.23.17-.29.2-.07.03-.1.07-.08.12.02.04.08.03.12.02.11-.03.5-.19.59-.22.25-.09.38-.09.44-.12.04-.02.07-.04.06-.07-.02-.04-.07-.06-.1-.1-.05-.06-.13-.19-.22-.35-.1-.19-.9-1.91-.93-1.97-.02-.04-.25-.6-.43-.99-.04-.1-.08-.13-.13-.11-.03.02-.04.06-.02.09.04.08.1.23.11.31.07.31-.03.45-.32.6-.27.15-.51.26-1.86.89l-1.52.71h0Z"/><path class="c" d="m213.07,170.81c-.9.19-1.63.35-2.03.38-.28.02-.49.02-.57-.16-.04-.08-.08-.19-.1-.27-.01-.06-.04-.07-.07-.06-.06.01-.07.06-.04.16.06.28.21.86.21.87.01.05.11.64.22,1.15.02.1.06.14.11.13.03,0,.05-.03.04-.09-.02-.08-.04-.29-.05-.43-.02-.29.17-.39.43-.47.38-.13,1.12-.29,2.01-.48l.22-.05s.08,0,.09.05l.23,1.15c.01.06,0,.09-.03.13-.2.24-.73.81-1.16,1.31-.59.68-.97,1.1-1.1,1.55-.08.27-.08.51.03,1.03l.14.66c.03.17.07.22.12.21.03,0,.05-.05.04-.1-.01-.06-.04-.19-.05-.37-.01-.24,0-.66.43-1.28.46-.66,1.16-1.47,1.97-2.45.95.67,1.7.82,2.39.67.64-.14,1.01-.64,1.13-.91.25-.57.17-1.21.05-1.79-.06-.29-.24-.99-.26-1.09-.01-.05-.11-.64-.2-1.06-.02-.1-.05-.15-.11-.13-.04,0-.05.05-.04.09.02.08.04.24.04.32,0,.32-.13.43-.44.51-.29.08-.56.14-2.01.45l-1.64.35h0Zm4.03-.08c.06-.01.1,0,.13.05.05.09.13.33.19.61.21,1-.36,1.76-1.52,2.01-.71.15-1.26.02-1.56-.26-.19-.18-.28-.44-.33-.66-.09-.41-.11-.85-.06-1.01.02-.05.05-.08.1-.09l3.05-.65h0Z"/><path class="h" d="m211.37,179.14c.02.51.15,1.02.45,1.42.49.64,1.22.77,1.61.75.76-.03,1.34-.31,2.19-1.47l.2-.27c.7-.92,1.02-1.2,1.56-1.22.69-.02,1.12.48,1.15,1.13.03.88-.36,1.15-.46,1.21-.1.06-.36.13-.47.14-.08.01-.12.02-.12.08,0,.05.07.06.22.06.65-.02.96,0,1.01,0,.05,0,.07-.02.06-.1,0-.08,0-.15.04-.33.05-.24.08-.52.06-.89-.04-1.21-.76-1.95-1.78-1.91-.65.02-1.23.27-2.02,1.31l-.34.44c-.65.84-1.02,1.13-1.68,1.15-.61.02-1.28-.4-1.31-1.32-.02-.64.22-1.28.92-1.44.13-.03.27-.04.35-.04.08,0,.1-.01.1-.07,0-.05-.05-.07-.16-.07-.15,0-.53-.03-1.01-.01-.26,0-.29.02-.36.16-.18.4-.23.84-.21,1.28h0Z"/><path class="h" d="m215.54,185.22c1.48.18,1.74.21,2.04.27.33.06.48.15.5.42,0,.12,0,.17,0,.24,0,.04,0,.08.05.08.06,0,.08-.04.09-.14.03-.28.08-.88.09-.93,0-.05.11-.64.15-.95.01-.1,0-.15-.06-.16-.04,0-.06.03-.07.07,0,.07-.03.19-.07.29-.07.2-.25.28-.57.26-.31-.02-.57-.05-2.05-.23l-1.66-.2c-.91-.11-1.66-.2-2.05-.3-.27-.07-.47-.14-.49-.34,0-.09-.01-.2,0-.29,0-.06-.02-.08-.05-.08-.06,0-.08.04-.1.14-.03.28-.08.88-.09.93,0,.05-.11.64-.17,1.16-.01.1,0,.15.06.16.03,0,.06-.01.07-.07.01-.08.05-.29.09-.42.07-.28.29-.31.57-.31.4,0,1.15.09,2.06.2l1.66.2h0Z"/><path class="h" d="m216.35,191.74l-.39,1.14c-.3.86-.58,1-.86.95l-.1-.02c-.13-.03-.16-.02-.18.02-.01.04.02.07.1.1.1.03.72.26.99.35.05.02.11.04.12-.01.02-.07.01-.35.2-.93l1.1-3.4c.03-.11.16-.45.28-.7.1-.24.22-.3.24-.36.01-.04-.09-.11-.14-.15-.07-.04-.79-.48-.88-.51-.05-.02-.09,0-.1.02-.01.04,0,.07.06.12.06.05.11.09.23.24.17.22.16.45-.01,1.02l-.42,1.35-3.83-1.25c-.87-.28-1.59-.52-1.95-.68-.25-.12-.44-.23-.41-.42,0-.09.03-.2.05-.28.02-.05,0-.08-.03-.09-.05-.02-.09.02-.12.12-.09.27-.25.85-.26.9-.01.05-.23.61-.39,1.11-.03.1-.02.15.03.17.03,0,.06,0,.08-.05.03-.08.11-.27.17-.4.12-.26.34-.25.61-.19.39.08,1.11.31,1.98.59l3.83,1.25h0Z"/><path class="h" d="m209.29,195.24c-.13-.07-.48-.27-.82-.49-.23-.15-.37-.33-.32-.51.03-.08.06-.19.11-.27.03-.05.01-.08-.01-.09-.05-.03-.09,0-.14.1-.14.25-.41.79-.43.83-.02.04-.34.55-.59,1.01-.05.09-.05.15,0,.17.02.01.06.01.09-.04.04-.07.16-.25.24-.36.17-.23.4-.2.65-.09.36.17.71.36.85.44l.72.4c.28.15.53.3.76.59.27.35,1.59,2.6,1.77,3.06.12.31.17.46.18.68,0,.18-.05.36-.1.45-.04.07-.04.12,0,.15.03.02.08-.02.11-.08.09-.16.4-.77.42-.82.04-.07.21-.32.33-.54.05-.08.06-.14.02-.16-.04-.02-.09.02-.15.08-.08.09-.19.07-.31,0-.11-.06-.23-.17-.35-.38-.18-.32-1.42-2.39-1.68-2.74.32-.02,3.17-.07,3.48-.07.16,0,.29.02.39.07.07.04.09.11.09.19,0,.09-.03.15,0,.17.03.02.07.02.12-.08.18-.32.33-.66.36-.71.02-.04.39-.65.48-.81.04-.07.04-.12,0-.14-.04-.02-.08,0-.1.05-.04.08-.18.21-.33.29-.18.09-.51.19-.93.22-.6.05-3.05.15-3.21.14-.3-.03-.53-.04-.98-.29l-.72-.4h0Z"/><path class="h" d="m208.9,200.16c.09-.12.11-.16.07-.21l-.33-.44c-.05-.08-.11-.1-.14-.05-.03.04-.05.22-.13.4-.13.31-1,1.77-1.12,2-.08.13-.17.29-.08.36.06.05.15-.04.25-.17l1.48-1.89h0Z"/><path class="h" d="m205.87,204.81c1.05,1.01,1.69,1.7,1.75,1.75.07.07.16.13.21.07.05-.05.07-.14.08-.24.02-.1.38-2.11.39-2.18,0-.05,0-.09-.02-.11-.03-.03-.08-.04-.1-.02-.03.03-.04.05-.05.11-.08.25-.3.97-.43,1.1-.1.11-.19.05-.33-.08-.38-.36-.68-.64-1.05-1l-1.2-1.16c-.69-.66-1.27-1.23-1.56-1.54-.2-.22-.26-.37-.08-.63.1-.16.4-.51.48-.59.03-.03.03-.08,0-.11-.03-.03-.08-.01-.15.06-.42.44-.96,1.03-.99,1.07-.03.03-.48.45-.97.97-.08.08-.1.13-.06.16.03.03.08.03.11,0,.06-.06.36-.33.48-.41.26-.17.39-.1.63.08.33.26.92.83,1.61,1.49l1.27,1.22h0Z"/><path class="h" d="m203.93,210.07c1.04-.81,1.24-2.12.43-3.15-.49-.63-1.58-1.1-2.65-.26-.3.23-.6.65-.63,1.05,0,.04,0,.06.02.08.02.02.06.04.08.02.02-.02.04-.06.06-.12.05-.14.14-.33.5-.6.2-.16,1.32-.63,2.29.61.46.59.54,1.43-.13,1.95-.66.52-1.76.3-2.79-1.01-1.38-1.76-1.2-3.91-.69-5.09.03-.06.03-.12,0-.16-.04-.04-.09-.05-.12-.03-.03.02-.07.07-.1.12-.56,1.17-1.23,3.79.42,5.9.89,1.14,2.26,1.53,3.32.7h0Z"/><path class="h" d="m195.07,209.25c-.51-1.01-.09-1.85.77-2.28.89-.45,1.47-.13,1.86.5.06.09.08.11.12.09.04-.02.04-.07,0-.16-.07-.2-.28-.69-.48-1.09-.05-.1-.1-.15-.26-.17-.23-.01-.79.15-1.14.32-1.51.77-2.03,2.29-1.43,3.48.5.99,1.63,1.06,2.23.92l.02.04c-.2.25-.79,1.26-.36,2.11.22.42.94,1.12,2.33.42.64-.32,1.03-.73,1.23-.99.07-.12.06-.16.02-.23-.1-.19-.32-.56-.49-.82-.05-.07-.08-.08-.11-.06-.03.01-.05.05,0,.13.33.65.06,1.23-.56,1.55-1,.51-1.63-.17-1.81-.52-.51-.99.22-1.88.6-2.16.1-.07.17-.14.14-.2-.03-.06-.1-.05-.28,0-.61.17-1.83.29-2.41-.85h0Z"/><path class="h" d="m192.9,215.89c1.24-.43,1.86-1.6,1.43-2.84-.26-.76-1.14-1.55-2.42-1.11-.36.12-.77.42-.94.79-.02.04-.02.06-.01.08s.04.06.07.05c.03,0,.06-.04.1-.09.09-.11.24-.26.66-.41.24-.08,1.45-.17,1.97,1.33.24.71.05,1.52-.76,1.8-.79.27-1.76-.29-2.31-1.87-.73-2.12.15-4.09,1.01-5.04.04-.04.07-.1.05-.16-.02-.05-.07-.08-.1-.07s-.09.04-.13.09c-.91.93-2.39,3.18-1.52,5.71.47,1.37,1.64,2.18,2.91,1.74h0Z"/><path class="i" d="m208.93,170.45c-2.9-9.43-12.26-17.74-21.79-19.36-.52-.22-1.92-.88-2.37-1.46-1.48-1.39-1.61-3.15-1.75-5.01-.1-1.4-.22-2.86-.9-4.2h.01l-.46-.86-.09.27h0l-.2.6h0c-.95,2.79-3.29,5.2-6,7.59-2.09,1.84-5.81,4.09-9.51,6.42l-1.52.96c-10.51,7.33-15.16,19.53-12.13,31.84,2.23,10.03,11.79,19.75,21.31,21.66h.11s.54.1.54.1c.98.22,3.02.69,5.67.74,4.36.09,7.02-.62,7.58-.78.15.02.29-.05.4-.1,0,0,.03-.02.06-.03.03,0,.07.02.07.02,4-.81,8.18-2.92,12.42-6.27,6.62-5.83,10.16-13.86,10.16-22.3,0-3.25-.53-6.56-1.61-9.82Z"/><path class="e" d="m181.48,148.71l.32,1.14c.56,2.01,2.47,3.51,4.32,4.95,2.91,2.27,5.92,4.62,3.63,8.98l-.02.03c-.52.79-1.22,1.46-1.99,1.9l-.67.38.12-.76c.42-2.74-1.42-4.36-3.38-6.07-2.1-1.84-4.27-4.04-3.54-7.15.68-2.9,1.21-3.39,1.21-3.39Z"/><path class="e" d="m183.83,184.96c-.74.6-1.37,1.4-1.46,2.31-.06,1.12.32,2.03,1.17,2.73-1.19.92-1.76,2.35-1.38,3.8.2.52.93,1.29.93,1.29,0,0-1.79,1.95-1.31,3.77.3,1.12,1.47,2.02,2.64,2.05-.07,1.43-.41,3.05-.76,4.56l-4.63.02-2.38-13.72c-.31-4.2,3.77-6.84,5.61-10.27.66-1.13.16-2.67-.56-3.61-.97-1.07-1.77-1.14-3.12-.77-1.55.66-2.7,2.52-3.82,3.73l-1.01-5.78h13.66l-.35,3.56c-1.53,1.04-4.11,1.59-4.17,3.95.05.93.37,1.71.96,2.37Z"/><polygon class="e" points="171.45 173.61 171.45 170.17 189.97 170.17 190.35 170.17 190.35 173.61 171.45 173.61"/><path class="e" d="m177.69,148.46c2.26-1.96,3.6-4.22,3.6-4.22,0,0-.2,1.15-.37,2.06-.25,1.3-.87,2.36-1.4,3.7-1.23,3.14-2.23,5.58.73,8.09,0,0,1.4,1.22,1.4,1.22,1.94,1.63,4.14,3.47,3.76,6.31-.23,1.75-1.85,3.06-3.26,3.54-3.74,1.22-7.58-.03-10.29-3.36-.77-1.14-1.87-3.44-1.87-4.42,0,0,0-.02,0-.03-.05-.4-.07-.78-.07-1.16.06-6,6.17-10.36,7.75-11.73Z"/><path class="e" d="m181.16,209c-5.86.13-10.03-1.44-10.03-1.44,1.04-3.63,1.82-5.21,2.34-8.45-1.36-1.17-1.82-1.61-2.47-3.05-3.83-5.65,2.4-12.14,6.3-16.77.85-.69,1.38-1.98,2.81-1.78,1.14.27,1.78,2.35,1.35,3.21-1.63,3.46-6.08,5.47-6.01,9.75.88,5.78,1.81,9.89,2.69,15.67h6.37l.88-5.46c1.04-.34,1.04-.67,1.22-.27.25.55,2.46,6.44,2.72,7.28,0,0-2.31,1.18-8.19,1.31Z"/><path class="e" d="m189.92,197.13l-4.87,2.33h-.06c-.69.1-1.35-.23-1.72-.87-.38-.74-.12-1.7.64-2.21,0,0,4.82-2.3,4.87-2.32.73-.22,1.46.09,1.94.82l.04.06v.07c.22.93-.1,1.74-.85,2.13Z"/><path class="e" d="m190.4,192.07s-4.64,2.2-4.69,2.22c-.73.22-1.46-.09-1.97-.87-.38-.83-.06-1.77.74-2.2,0,0,4.64-2.2,4.69-2.22.73-.22,1.46.09,1.94.82l.02.03v.03c.39.83.08,1.77-.73,2.2Z"/><path class="e" d="m190.87,186.64l-4.63,2.25-.36.09c-.82-.03-1.38-.33-1.66-.88-.48-.94.07-1.85.83-2.32l4.73-2.21.08-.04h.09c.83.03,1.38.33,1.66.88h0c.38.84.06,1.79-.74,2.21Z"/><path class="e" d="m191.85,181.24c-1.13.8-2.38,1.35-3.58,1.89l-1.49.72-.47.16c-.86.08-1.63-.36-1.92-1.09l-.02-.04v-.05c-.12-.85.2-1.55.87-1.91l4.87-2.33h.05c.99-.17,1.67.09,2.01.76h0c.28.62.17,1.37-.33,1.88Z"/><path class="e" d="m204.85,214.53c.53,0,.98.42.98.97s-.45.98-.98.98-.98-.42-.98-.98.45-.97.98-.97Zm0,1.81c.45,0,.8-.36.8-.84s-.35-.83-.8-.83-.81.36-.81.83.35.84.81.84Zm-.38-1.4h.44c.27,0,.4.11.4.33,0,.21-.13.29-.3.31l.33.5h-.19l-.31-.49h-.19v.49h-.18v-1.14Zm.18.51h.19c.16,0,.3,0,.3-.19,0-.15-.13-.17-.25-.17h-.23v.36Z"/></svg>