<?xml version="1.0" encoding="UTF-8"?><svg id="a" xmlns="http://www.w3.org/2000/svg" viewBox="0 0 360 252.7"><defs><style>.b{fill:#f6d33b;stroke:#f6d33b;stroke-width:1.52px;}.c{fill:#fff;}.d{fill:#12487d;}</style></defs><path class="d" d="m206.07,234.39v-43.67l14.93-7.37.05-.02c.61-.25.65-.26.65-1.28v-26.4l-38.32,54.06-38.32-54.06v26.4c0,1.02.04,1.03.65,1.28l.1.04,14.89,7.35v43.67H37.15v-42.65l.78-.43c.13-.07,13.29-7.38,14.27-7.93q.57-.33.57-1.32v-42.53s-16.44-15.55-16.44-15.55l16.44-16.04v-42.29c0-1.01-.04-1.03-.64-1.27l-14.98-6.59V13.29h84.72c11.76,0,16.94,5.18,20.14,9.7,1.85,2.61,34.55,48.75,41.38,58.38l41.38-58.38c3.2-4.52,8.38-9.7,20.14-9.7h84.72v44.48l-14.94,6.57c-.64.26-.69.28-.69,1.29v42.29s16.44,16.04,16.44,16.04l-16.44,15.55v42.53q0,1,.57,1.32c.98.56,14.14,7.86,14.27,7.93l.78.43v42.65h-123.56Z"/><path class="c" d="m328.11,14.81v41.96l-14.03,6.17c-1.48.6-1.59,1.46-1.59,2.68v42.93s15.77,15.38,15.77,15.38l-15.76,14.91v43.19c0,1.67.33,2.08,1.34,2.65,1,.57,14.29,7.94,14.29,7.94v40.23h-120.51v-41.2l14.04-6.93c1.48-.6,1.6-1.46,1.6-2.69v-31.18l-39.84,56.21-39.84-56.21v31.18c0,1.23.11,2.09,1.6,2.69l14.04,6.93v41.2H38.67v-40.23s13.29-7.37,14.29-7.94c1-.57,1.34-.98,1.34-2.65v-43.19s-15.77-14.91-15.77-14.91l15.76-15.38v-42.93c0-1.22-.11-2.08-1.59-2.68l-14.03-6.17V14.81h83.2c11.01,0,15.88,4.8,18.9,9.06,2.07,2.92,42.62,60.14,42.62,60.14,0,0,40.55-57.22,42.62-60.14,3.02-4.26,7.89-9.06,18.9-9.06h83.2m3.05-3.05h-86.24c-12.6,0-18.24,5.9-21.38,10.34-1.76,2.48-31.29,44.15-40.14,56.63-8.85-12.48-38.38-54.15-40.14-56.63-3.15-4.44-8.78-10.34-21.38-10.34H35.63v46.99l1.82.8,13.81,6.07v41.64s-14.85,14.48-14.85,14.48l-2.27,2.21,2.3,2.18,14.81,14.01v41.88s0,.08,0,.11c-1.92,1.07-13.93,7.74-14.06,7.81l-1.57.87v45.07h126.6v-46.14l-1.7-.84-13.94-6.88h0v-21.62l34.31,48.41,2.48,3.51,2.48-3.51,34.31-48.41v21.62h0s-13.94,6.89-13.94,6.89l-1.7.84v46.14h126.6v-45.07l-1.57-.87c-.13-.07-12.14-6.74-14.06-7.81,0-.03,0-.07,0-.11v-41.88s14.81-14.01,14.81-14.01l2.3-2.18-2.27-2.21-14.84-14.48v-41.64s13.8-6.07,13.8-6.07l1.82-.8V11.77h0Z"/><path class="c" d="m317.61,51.17v-25.86l-36.75.04c-4.01.41-5.47,1.16-8.1,3.16-4.91-3.28-8.12-3.21-8.12-3.21h-19.58c-3.05.03-5.24.67-6.88,1.57-1.87,1.02-3.02,2.37-3.93,3.52l-50.85,71.76-50.85-71.76c-1.69-2.16-4.29-5.03-10.81-5.09h-19.58s-3.2-.08-8.12,3.21c-2.19-1.67-4.64-2.89-7.24-3.16l-37.6-.04v25.86s15.63,1.28,15.63,14.46v42.93c0,5.83-3.59,8.42-3.59,8.42l-8.06,6.96,7.94,6.4s3.71,2.69,3.71,8.52v43.19c0,11.92-10.94,13.03-15.62,14.47v25.86h41.29c2.03,0,4.38-.38,8.48-3.77,4.1,3.39,6.44,3.77,8.47,3.77h41.28v-25.68c-2.97-.94-15.63-2.64-15.63-14.64v-64.14l50.33,71.01,50.33-71.01v64.14c0,12-12.66,13.7-15.63,14.64v25.68h41.27c2.03,0,4.38-.38,8.47-3.77,4.1,3.39,6.45,3.77,8.48,3.77h41.29v-25.86c-4.68-1.44-15.62-2.54-15.62-14.47v-43.19c0-5.83,3.71-8.52,3.71-8.52l7.93-6.4-8.06-6.96s-3.58-2.58-3.58-8.42v-42.93c0-13.18,15.64-14.47,15.62-14.46Z"/><path class="b" d="m183.68,174.51l58.73-83.19.17,91c.03,17.06-15.59,21.12-15.59,21.12l.02,10.68,32.72-.06c1.95,0,8.46-7.2,8.46-7.2,0,0,6.54,7.17,8.49,7.17l32.74-.06-.02-10.68s-15.64-4-15.67-21.06l-.08-43.19h0c-.02-9.76,8.24-14.92,8.24-14.92,0,0-8.27-5.6-8.29-15.37h0s-.08-42.93-.08-42.93c-.03-17.06,15.59-21.12,15.59-21.12l-.02-10.67-28.17.05c-3.33.35-8.11,7.17-8.11,7.17,0,0-4.81-6.81-8.14-7.14l-19.59.04c-1.77.02-2.76.2-3.82,1.49l-57.69,81.71-57.98-81.5c-1.08-1.28-2.06-1.46-3.83-1.47l-19.58.04c-3.33.35-8.11,7.17-8.11,7.17,0,0-4.8-6.81-8.13-7.14l-28.18.05.02,10.67s15.64,4,15.68,21.06l.08,42.93h-.01c.02,9.76-8.23,15.39-8.23,15.39,0,0,8.27,5.14,8.29,14.9h.01s.08,43.19.08,43.19c.03,17.06-15.6,21.12-15.6,21.12l.02,10.68,32.74-.06c1.95,0,8.46-7.2,8.46-7.2,0,0,6.54,7.17,8.49,7.17l32.72-.06-.02-10.68s-15.63-4-15.67-21.06l-.17-91,59.03,82.97Z"/><path class="c" d="m338.27,232.43c-2.53,0-4.33-1.9-4.33-4.4,0-2.65,2-4.4,4.33-4.4s4.31,1.75,4.31,4.4-2,4.4-4.31,4.4Zm0-8.04c-1.91,0-3.39,1.49-3.39,3.64,0,2,1.3,3.64,3.39,3.64,1.88,0,3.37-1.48,3.37-3.64s-1.48-3.64-3.37-3.64Zm-.87,6.16h-.8v-4.88h1.85c1.18,0,1.78.41,1.78,1.4,0,.88-.54,1.25-1.27,1.33l1.37,2.14h-.91l-1.26-2.08h-.75v2.08Zm.89-2.77c.6,0,1.13-.06,1.13-.77,0-.59-.58-.66-1.06-.66h-.97v1.42h.89Z"/></svg>